<svg width="48" height="48" viewBox="0 0 48 48" fill="none" xmlns="http://www.w3.org/2000/svg">
    <path d="M17.8124 40.2327C17.0107 40.2327 16.2537 39.8765 15.7415 39.2307L7.94823 29.5446C7.43604 28.8988 7.2357 28.075 7.43604 27.2732L10.2194 15.1823C10.3975 14.3806 10.9319 13.7348 11.6668 13.3786L22.9339 7.98986C23.2903 7.81189 23.6911 7.72278 24.0919 7.72278C24.4927 7.72278 24.8934 7.81176 25.2498 7.98999L36.517 13.3564C37.2517 13.7126 37.7862 14.3584 37.9643 15.16L40.7476 27.251C40.9259 28.0526 40.7476 28.8765 40.2356 29.5223L32.442 39.2085C31.9298 39.8319 31.1728 40.2105 30.3712 40.2105L17.8126 40.2327H17.8124Z" fill="#326DE6"/>
    <path d="M24.0333 8.2794C24.3452 8.2794 24.6569 8.34614 24.9463 8.47974L36.2136 13.8461C36.7925 14.1356 37.2378 14.67 37.3714 15.2936L40.1548 27.3846C40.3106 28.0303 40.1548 28.6984 39.7317 29.2104L31.9383 38.8967C31.5375 39.4088 30.9139 39.6983 30.2683 39.6983H17.7763C17.1305 39.6983 16.5071 39.4088 16.1063 38.8967L8.31286 29.2104C7.91204 28.6984 7.75605 28.0303 7.88979 27.3846L10.6732 15.2936C10.829 14.6478 11.2521 14.1134 11.831 13.8461L23.0984 8.45763C23.3878 8.34627 23.7218 8.27953 24.0335 8.27953L24.0333 8.2794ZM24.0333 7.23279C23.5658 7.23279 23.0982 7.34415 22.6528 7.54449L11.3857 12.9333C10.4949 13.3563 9.87152 14.1356 9.6488 15.0931L6.86542 27.1842C6.64284 28.1417 6.86542 29.1214 7.48897 29.9008L15.2824 39.587C15.8837 40.344 16.7966 40.7671 17.7541 40.7671H30.2459C31.2034 40.7671 32.1164 40.344 32.7175 39.587L40.5111 29.9007C41.1345 29.1437 41.3572 28.1417 41.1345 27.1841L38.3511 15.0931C38.1286 14.1356 37.505 13.3563 36.6144 12.9333L25.3917 7.54436C24.9686 7.34415 24.501 7.23279 24.0333 7.23279Z" fill="white"/>
    <path d="M35.0645 26.4269C35.0423 26.4269 35.0423 26.4269 35.0645 26.4269H35.0423C35.02 26.4269 34.9978 26.4269 34.9978 26.4047C34.9533 26.4047 34.9088 26.3824 34.8642 26.3824C34.7083 26.3602 34.5747 26.3379 34.4411 26.3379C34.3742 26.3379 34.3075 26.3379 34.2184 26.3156H34.1961C33.7286 26.2711 33.35 26.2266 32.9937 26.1152C32.8378 26.0483 32.7933 25.9594 32.7487 25.8703C32.7487 25.848 32.7265 25.848 32.7265 25.8258L32.437 25.7368C32.5738 24.6893 32.521 23.6257 32.2812 22.5969C32.038 21.5596 31.6161 20.5725 31.0342 19.68L31.2569 19.4796V19.4351C31.2569 19.3238 31.2792 19.2124 31.3681 19.101C31.6354 18.8561 31.9694 18.6557 32.3703 18.4108C32.437 18.3663 32.5037 18.344 32.5706 18.2994C32.7042 18.2327 32.8156 18.1659 32.9492 18.0768C32.9714 18.0546 33.0159 18.0323 33.0606 17.9878C33.0828 17.9655 33.105 17.9655 33.105 17.9432C33.4167 17.676 33.4836 17.2307 33.2609 16.9411C33.1495 16.7852 32.9492 16.6963 32.7487 16.6963C32.5707 16.6963 32.4148 16.763 32.2589 16.8743L32.2144 16.9188C32.1699 16.9411 32.1475 16.9857 32.1031 17.008C31.9917 17.1193 31.9026 17.2083 31.8136 17.3197C31.7691 17.3642 31.7246 17.431 31.6577 17.4755C31.3459 17.8096 31.0564 18.0768 30.767 18.2772C30.7002 18.3216 30.6335 18.344 30.5666 18.344C30.5222 18.344 30.4775 18.344 30.433 18.3216H30.3885L30.1212 18.4999C29.8317 18.1882 29.52 17.921 29.2083 17.6537C27.8661 16.6046 26.2508 15.9631 24.5545 15.8055L24.5322 15.516L24.4877 15.4715C24.4208 15.4047 24.3319 15.3379 24.3095 15.1821C24.2872 14.8257 24.3319 14.4249 24.3764 13.9796V13.9574C24.3764 13.8905 24.3986 13.8015 24.4208 13.7346C24.4431 13.6012 24.4653 13.4674 24.4877 13.3116V13.1112C24.4877 12.7104 24.1759 12.3765 23.7974 12.3765C23.6192 12.3765 23.4411 12.4654 23.3075 12.5991C23.174 12.7327 23.1072 12.9108 23.1072 13.1112V13.2893C23.1072 13.4452 23.1294 13.5788 23.1739 13.7124C23.1961 13.7793 23.1961 13.846 23.2184 13.9351V13.9574C23.2629 14.4027 23.3297 14.8035 23.2853 15.1598C23.263 15.3157 23.1739 15.3824 23.1072 15.4493L23.0627 15.4938L23.0403 15.7832C22.6395 15.8277 22.2386 15.8722 21.8378 15.9613C20.1233 16.3399 18.6091 17.2084 17.429 18.4553L17.2063 18.2994H17.1618C17.1173 18.2994 17.0727 18.3216 17.0282 18.3216C16.9614 18.3216 16.8946 18.2994 16.8277 18.2549C16.5383 18.0546 16.2488 17.765 15.9371 17.431C15.8926 17.3865 15.8481 17.3197 15.7813 17.2752C15.6922 17.1638 15.603 17.0747 15.4917 16.9635C15.4694 16.9411 15.4249 16.919 15.3805 16.8743C15.3582 16.8521 15.336 16.8521 15.336 16.8299C15.198 16.7159 15.025 16.6529 14.846 16.6516C14.6455 16.6516 14.4452 16.7407 14.3338 16.8966C14.1111 17.1861 14.178 17.6314 14.4897 17.8986C14.5119 17.8986 14.5119 17.921 14.5342 17.921C14.5787 17.9432 14.6011 17.9877 14.6455 18.0099C14.7792 18.0989 14.8905 18.1658 15.0241 18.2327C15.091 18.2549 15.1577 18.2994 15.2246 18.344C15.6253 18.5889 15.9594 18.7893 16.2266 19.0343C16.3379 19.1455 16.3379 19.2569 16.3379 19.3683V19.4128L16.5605 19.6132C16.516 19.68 16.4716 19.7246 16.4492 19.7913C15.3358 21.5505 14.9128 23.6213 15.2022 25.6699L14.9128 25.7589C14.9128 25.7813 14.8905 25.7813 14.8905 25.8034C14.846 25.8925 14.7792 25.9816 14.6455 26.0483C14.3116 26.1597 13.9108 26.2043 13.4432 26.2488H13.4208C13.3541 26.2488 13.265 26.2488 13.1982 26.2711C13.0646 26.2711 12.931 26.2933 12.7752 26.3156C12.7307 26.3156 12.6862 26.3379 12.6416 26.3379C12.6193 26.3379 12.5971 26.3379 12.5747 26.3602C12.1739 26.4492 11.9289 26.8277 11.9958 27.1839C12.0627 27.4958 12.3521 27.6963 12.7083 27.6963C12.7752 27.6963 12.8197 27.6963 12.8865 27.6739C12.9088 27.6739 12.931 27.6739 12.931 27.6516C12.9755 27.6516 13.02 27.6294 13.0645 27.6294C13.2205 27.5849 13.3319 27.5404 13.4655 27.4735C13.5322 27.4513 13.5989 27.4067 13.6658 27.3846H13.688C14.1111 27.2286 14.4897 27.095 14.846 27.0505H14.8905C15.0241 27.0505 15.1132 27.1172 15.18 27.1618C15.2022 27.1618 15.2022 27.1841 15.2245 27.1841L15.5363 27.1396C16.0707 28.7872 17.095 30.2569 18.4533 31.3258C18.765 31.5706 19.0767 31.7711 19.4108 31.9716L19.2772 32.2609C19.2772 32.2833 19.2994 32.2833 19.2994 32.3054C19.3439 32.3945 19.3884 32.5059 19.3439 32.6617C19.2104 32.9958 19.01 33.3297 18.765 33.7083V33.7306C18.7205 33.7974 18.676 33.8419 18.6315 33.9087C18.5424 34.02 18.4755 34.1314 18.3864 34.265C18.3642 34.2872 18.3419 34.3317 18.3197 34.3764C18.3197 34.3986 18.2974 34.4208 18.2974 34.4208C18.1193 34.7994 18.2529 35.2225 18.5869 35.3783C18.6759 35.4228 18.765 35.4452 18.8541 35.4452C19.1213 35.4452 19.3885 35.267 19.5221 35.022C19.5221 34.9998 19.5444 34.9775 19.5444 34.9775C19.5666 34.933 19.5889 34.8885 19.6111 34.8662C19.678 34.7103 19.7002 34.5989 19.7447 34.4653L19.8116 34.265C19.9675 33.8197 20.0788 33.4633 20.2792 33.1516C20.3681 33.018 20.4796 32.9958 20.5686 32.9512C20.5909 32.9512 20.5909 32.9512 20.6131 32.9289L20.7691 32.6395C21.7488 33.018 22.8177 33.2184 23.8864 33.2184C24.5322 33.2184 25.2002 33.1516 25.8238 32.9958C26.2162 32.9081 26.6028 32.7965 26.9816 32.6617L27.1151 32.9067C27.1375 32.9067 27.1375 32.9067 27.1597 32.9289C27.2711 32.9512 27.3601 32.9958 27.4492 33.1294C27.6273 33.4411 27.7609 33.8197 27.9167 34.2427V34.265L27.9836 34.4653C28.0281 34.5989 28.0504 34.7325 28.1171 34.8662C28.1395 34.9106 28.1617 34.933 28.184 34.9775C28.184 34.9998 28.2063 35.022 28.2063 35.022C28.3398 35.2892 28.607 35.4452 28.8742 35.4452C28.9634 35.4452 29.0525 35.4228 29.1415 35.3783C29.2973 35.2894 29.4309 35.1556 29.4755 34.9775C29.52 34.7994 29.52 34.5989 29.431 34.4208C29.431 34.3986 29.4087 34.3986 29.4087 34.3764C29.3864 34.3319 29.3642 34.2874 29.3419 34.265C29.2751 34.1314 29.1861 34.02 29.097 33.9087C29.0525 33.8419 29.008 33.7974 28.9635 33.7307V33.7083C28.7184 33.3297 28.4957 32.9958 28.3844 32.6617C28.3399 32.5059 28.3844 32.4169 28.4067 32.3055C28.4067 32.2833 28.4289 32.2833 28.4289 32.261L28.3176 31.9938C29.4978 31.3035 30.4998 30.3236 31.2569 29.1213C31.6577 28.4978 31.9694 27.8075 32.192 27.1172L32.4593 27.1617C32.4816 27.1617 32.4816 27.1395 32.5037 27.1395C32.5929 27.095 32.6597 27.0282 32.7933 27.0282H32.8378C33.1942 27.0727 33.5726 27.2062 33.9958 27.3622H34.018C34.0848 27.3844 34.1515 27.4289 34.2184 27.4512C34.352 27.518 34.4634 27.5625 34.6192 27.6071C34.6637 27.6071 34.7082 27.6294 34.7528 27.6294C34.7751 27.6294 34.7973 27.6294 34.8196 27.6516C34.8864 27.6739 34.9309 27.6739 34.9978 27.6739C35.3317 27.6739 35.6212 27.4513 35.7103 27.1618C35.7103 26.8946 35.4653 26.5383 35.0645 26.4271V26.4269ZM24.7548 25.3358L23.7751 25.8035L22.7953 25.3358L22.5505 24.2893L23.2184 23.4432H24.3095L24.9775 24.2893L24.7549 25.3358H24.7548ZM30.5666 23.0201C30.7394 23.7565 30.792 24.5158 30.7225 25.269L27.3156 24.2893C27.0039 24.2004 26.8258 23.8885 26.8925 23.5768C26.9148 23.4877 26.9594 23.3986 27.0261 23.3318L29.7205 20.9047C30.0989 21.5282 30.3884 22.2407 30.5666 23.02V23.0201ZM28.6516 19.5687L25.7347 21.6396C25.4897 21.7954 25.1556 21.7508 24.9553 21.506C24.8885 21.4391 24.8663 21.35 24.8439 21.261L24.6436 17.6314C26.16 17.806 27.5728 18.4888 28.6516 19.5687ZM22.1941 17.7426C22.4391 17.6981 22.6617 17.6536 22.9067 17.6091L22.7063 21.1718C22.6841 21.4835 22.4391 21.7507 22.105 21.7507C22.0161 21.7507 21.9047 21.7284 21.8378 21.6839L18.8763 19.5687C19.7894 18.6557 20.9249 18.0322 22.1941 17.7427V17.7426ZM17.8075 20.9045L20.4573 23.2648C20.7022 23.4653 20.7245 23.8438 20.5241 24.0887C20.4573 24.1777 20.3683 24.2446 20.2569 24.267L16.8055 25.269C16.6719 23.7548 17.0058 22.2184 17.8075 20.9045ZM17.2062 26.939L20.7468 26.3377C21.0363 26.3154 21.3035 26.5159 21.3703 26.8054C21.3925 26.9388 21.3925 27.0503 21.348 27.1617L19.9897 30.4349C18.7427 29.6332 17.7408 28.4085 17.2063 26.939H17.2062ZM25.3339 31.3701C24.8217 31.4815 24.3095 31.5482 23.7751 31.5482C22.9958 31.5482 22.2386 31.4147 21.5262 31.192L23.2853 28.0078C23.4633 27.8074 23.7528 27.7184 23.9978 27.852C24.1017 27.9157 24.1925 27.9988 24.265 28.0968L25.9795 31.192C25.7792 31.2588 25.5564 31.3034 25.3337 31.3701H25.3339ZM29.6759 28.275C29.1192 29.1657 28.3843 29.8782 27.5383 30.4349L26.1355 27.0724C26.0686 26.8054 26.18 26.5159 26.4472 26.3822C26.5362 26.3377 26.6475 26.3154 26.7589 26.3154L30.3217 26.9167C30.1881 27.4065 29.9653 27.852 29.6759 28.275Z" fill="white"/>
</svg>
