<svg width="64" height="64" viewBox="0 0 64 64" fill="none" xmlns="http://www.w3.org/2000/svg">
<g filter="url(#filter0_i_713_4708)">
<path d="M4.94975 37.4853L0.707107 33.2426C0.316583 32.8521 0.316583 32.2189 0.707107 31.8284L12.0208 20.5147C12.4113 20.1242 13.0445 20.1242 13.435 20.5147L17.6777 24.7573C18.0682 25.1479 18.0682 25.781 17.6777 26.1716L6.36396 37.4853C5.97344 37.8758 5.34027 37.8758 4.94975 37.4853Z" fill="#D3E2FC"/>
<path d="M58.6889 26.1715L62.9316 30.4141C63.3221 30.8046 63.3221 31.4378 62.9316 31.8283L51.6179 43.142C51.2273 43.5326 50.5942 43.5326 50.2036 43.142L45.961 38.8994C45.5705 38.5089 45.5705 37.8757 45.961 37.4852L57.2747 26.1715C57.6652 25.7809 58.2984 25.7809 58.6889 26.1715Z" fill="#C4D2EC"/>
<path d="M16.9698 26.8787L7.07031 36.7782L13.4343 43.1421C18.1206 47.8284 25.7185 47.8284 30.4048 43.1421L36.7688 36.7782L26.8693 26.8787L22.6267 31.1213C22.2361 31.5118 21.603 31.5118 21.2124 31.1213L16.9698 26.8787Z" fill="#93A4C1"/>
<path d="M46.6681 36.7781L56.5676 26.8786L50.2036 20.5147C45.5173 15.8284 37.9193 15.8284 33.233 20.5147L26.8691 26.8786L36.7686 36.7781L41.0112 32.5355C41.4017 32.145 42.0349 32.145 42.4254 32.5355L46.6681 36.7781Z" fill="#B0C4E7"/>
<path d="M56.5676 26.8786L50.2036 20.5147C45.5173 15.8284 37.9193 15.8284 33.233 20.5147L26.8691 26.8786" stroke="white" stroke-width="0.4"/>
<path d="M7.07031 36.7781L13.4343 43.142C18.1206 47.8283 25.7185 47.8283 30.4048 43.142L36.7688 36.7781" stroke="white" stroke-width="0.4"/>
<path d="M38.183 38.1924L41.0114 35.3639C41.4019 34.9734 41.4019 34.3402 41.0114 33.9497L29.6977 22.636C29.3072 22.2455 28.674 22.2455 28.2835 22.636L25.4551 25.4644L38.183 38.1924Z" fill="#D3E2FC"/>
<path d="M25.4553 25.4645L22.6269 28.2929C22.2363 28.6834 22.2363 29.3166 22.6269 29.7071L33.9406 41.0208C34.3311 41.4113 34.9642 41.4113 35.3548 41.0208L38.1832 38.1924L25.4553 25.4645Z" fill="#C4D2EC"/>
</g>
<defs>
<filter id="filter0_i_713_4708" x="0.414062" y="16.8" width="62.8105" height="34.0566" filterUnits="userSpaceOnUse" color-interpolation-filters="sRGB">
<feFlood flood-opacity="0" result="BackgroundImageFix"/>
<feBlend mode="normal" in="SourceGraphic" in2="BackgroundImageFix" result="shape"/>
<feColorMatrix in="SourceAlpha" type="matrix" values="0 0 0 0 0 0 0 0 0 0 0 0 0 0 0 0 0 0 127 0" result="hardAlpha"/>
<feOffset dy="4"/>
<feGaussianBlur stdDeviation="10"/>
<feComposite in2="hardAlpha" operator="arithmetic" k2="-1" k3="1"/>
<feColorMatrix type="matrix" values="0 0 0 0 0 0 0 0 0 0 0 0 0 0 0 0 0 0 0.18 0"/>
<feBlend mode="normal" in2="shape" result="effect1_innerShadow_713_4708"/>
</filter>
</defs>
</svg>
