<?xml version="1.0" encoding="utf-8"?>
<!-- Generator: Adobe Illustrator 21.1.0, SVG Export Plug-In . SVG Version: 6.00 Build 0)  -->
<svg version="1.1" id="Layer_1" xmlns="http://www.w3.org/2000/svg" xmlns:xlink="http://www.w3.org/1999/xlink" x="0px" y="0px"
	 viewBox="0 0 85.1 54.3" style="enable-background:new 0 0 85.1 54.3;" xml:space="preserve">
<style type="text/css">
	.st0{fill:#11B5A4;}
	.st1{fill:#4E555D;}
</style>
<g>
	<g>
		<g>
			<path class="st0" d="M44.2,16c0,0,8.7,8.8,6.2,23.6c8.7-3.5,12.1-9.3,13.1-15.2c0,0,3-11.1,7.6-15.7C62,10.1,61.1,6.5,44.2,16z"
				/>
			<path class="st0" d="M46,42.9C46,42.9,46,42.9,46,42.9c0.2-1.1,3.6-12.6-3.1-22c-11.2-12.4-28-14.2-28-14.2
				c3.3,6.4,3.4,12.3,7,24.4c4.3,12.6,20.4,13.4,21.6,13.4c1.1,1.7,3.5,4,9.2,5.2l0.6-3C48.4,45.8,46.6,43.9,46,42.9z M30.2,27.3
				c-1.3-4.2-4.9-11.3-9.2-15c0,0,12.7,3.3,20,27.1C34.2,37.4,31.2,30.5,30.2,27.3z"/>
		</g>
		<g>
			<path class="st1" d="M16.7,3.1c-7.1,3.4-9.9,11.5-9.9,24c0,12.3,2.8,20.5,9.9,24.1l-0.8,3.1C4.9,50.5,0,42,0,27.2
				C0,12.3,4.9,3.8,15.9,0L16.7,3.1z"/>
			<path class="st1" d="M69.2,0c10.9,3.8,15.9,12.3,15.9,27.2c0,14.8-4.9,23.3-15.9,27.1l-0.9-3.1c7.1-3.6,9.9-11.8,9.9-24.1
				c0-12.5-2.8-20.7-9.9-24L69.2,0z"/>
		</g>
	</g>
</g>
</svg>
