<?xml version="1.0" encoding="UTF-8"?>
<svg width="60px" height="60px" viewBox="0 0 60 60" version="1.1" xmlns="http://www.w3.org/2000/svg" xmlns:xlink="http://www.w3.org/1999/xlink">
    <title>codecov</title>
    <g id="Page-1" stroke="none" stroke-width="1" fill="none" fill-rule="evenodd">
        <g id="codecov" fill-rule="nonzero">
            <circle id="Oval" fill="#FF0077" cx="30" cy="30" r="30"></circle>
            <path d="M30.0534521,7.05 C16.7973274,7.05 6,17.7404232 6,30.7827394 L6,30.8896437 L10.0623608,33.2415367 L10.169265,33.2415367 C12.7349666,31.531069 15.8351893,30.8896437 18.935412,31.4241648 C21.0734967,31.8517817 23.1046771,32.8139198 24.7082405,34.310579 L25.4565702,34.9520043 L25.8841871,34.0967707 C26.311804,33.2415367 26.7394209,32.4932071 27.1670379,31.7448775 C27.3808463,31.4241648 27.5946548,31.2103563 27.8084633,30.8896437 L28.2360802,30.3551225 L27.701559,29.9275056 C25.4565702,28.1101336 22.7839644,26.8272829 19.8975501,26.2927617 C17.1180401,25.7582405 14.3385301,25.8651448 11.7728285,26.7203786 C13.6971047,18.2749443 21.1804009,12.2883073 30.0534521,12.2883073 C35.077951,12.2883073 39.7817373,14.2125835 43.309577,17.7404232 C45.8752783,20.1992205 47.585746,23.2994432 48.3340757,26.7203786 C46.7305123,26.1858575 45.0200447,25.972049 43.309577,25.972049 L42.988864,25.972049 C42.3474387,25.972049 41.7060133,26.0789532 40.9576837,26.0789532 L40.8507797,26.0789532 C40.636971,26.0789532 40.3162583,26.1858575 40.10245,26.1858575 C39.674833,26.2927617 39.3541203,26.2927617 38.9265033,26.3996659 L38.6057907,26.5065702 C38.285078,26.6134744 37.9643653,26.7203786 37.6436527,26.8272829 L37.5367483,26.8272829 C36.7884187,27.0410913 36.1469933,27.361804 35.3986637,27.6825167 L35.3986637,27.6825167 C35.077951,27.7894209 34.7572383,28.0032294 34.4365257,28.2170379 L34.3296213,28.2170379 C32.7260579,29.1791759 31.2293987,30.3551225 30.0534521,31.8517817 L29.9465479,32.0655902 C29.6258352,32.4932071 29.4120267,32.8139198 29.1982183,33.0277283 C28.9844098,33.2415367 28.8775056,33.5622493 28.6636971,33.882962 L28.5567929,34.0967707 C28.3429844,34.4174833 28.2360802,34.738196 28.1291759,34.9520043 L28.1291759,35.0589087 C27.8084633,35.700334 27.4877506,36.4486637 27.2739421,37.1969933 L27.2739421,37.3038977 C26.7394209,39.0143653 26.4187082,40.8317373 26.4187082,42.7560133 L26.4187082,42.9698217 C26.4187082,43.1836303 26.4187082,43.504343 26.4187082,43.7181513 C26.4187082,43.8250557 26.4187082,43.93196 26.4187082,44.038864 C26.4187082,44.1457683 26.4187082,44.359577 26.4187082,44.466481 L26.4187082,44.5733853 L26.4187082,44.7871937 C26.4187082,45.0010023 26.5256125,45.321715 26.5256125,45.5355233 C27.0601336,48.101225 28.2360802,50.5600223 30.0534521,52.805011 L30.1603563,52.9119153 L30.2672606,52.805011 C31.0155902,51.9497773 32.7260579,49.2771713 32.9398664,47.673608 L32.9398664,47.673608 L32.9398664,47.673608 C32.0846325,46.0700447 31.6570156,44.2526727 31.6570156,42.542205 C31.6570156,36.555568 36.3608017,31.531069 42.454343,31.2103563 L42.88196,31.2103563 C45.3407573,31.1034521 47.7995547,31.8517817 49.830735,33.2415367 L49.9376393,33.2415367 L54,30.8896437 L54,30.8896437 L54,30.7827394 C54,24.4753898 51.5412027,18.4887528 46.9443207,13.9987751 C42.454343,9.50879733 36.467706,7.05 30.0534521,7.05" id="Path" fill="#FFFFFF"></path>
        </g>
    </g>
</svg>