<svg width="64" height="64" viewBox="0 0 64 64" fill="none" xmlns="http://www.w3.org/2000/svg">
	<path d="M15.3551 43.0433C13.8271 44.5713 13.262 47.5983 12.4897 51.6298C12.402 52.0878 12.8066 52.4906 13.2643 52.4012C17.2253 51.6279 20.3257 51.0657 21.8517 49.5398C23.4988 47.8927 23.3797 45.1032 21.5857 43.3092C19.7917 41.5153 17.0022 41.3962 15.3551 43.0433Z" fill="#FFE137"/>
	<path d="M43.3782 12.6564C46.1912 12.1602 49.1439 11.6955 51.9739 12.4068C52.6869 15.1859 52.2403 18.096 51.7569 20.8632C50.4253 27.5741 47.2396 34.0486 42.0534 38.5714C42.2034 40.1598 42.4073 41.7446 42.5297 43.3348C42.6437 45.6791 41.4781 47.9925 39.5651 49.3137C37.1099 50.9441 34.6661 52.5952 32.1925 54.196C30.9017 55.0015 28.9852 54.0447 28.8102 52.5305C28.5633 49.9735 28.3938 47.4088 28.1488 44.8508C26.0811 44.7976 24.0008 44.0606 22.441 42.6626C20.6201 41.0786 19.6314 38.6962 19.5356 36.3235C17.7703 36.0778 15.9258 36.0575 14.1296 35.8889C13.2781 35.7907 12.3883 35.8908 11.5691 35.586C10.3289 35.0837 9.75757 33.4111 10.485 32.2898C12.028 29.8495 13.5474 27.3927 15.1068 24.9626C16.4404 22.9213 18.9043 21.7107 21.3529 21.8967C22.7477 22.027 24.1405 22.1808 25.5323 22.3426C25.861 22.4467 26.0114 22.0788 26.214 21.9008C30.6663 16.9854 36.9169 13.9766 43.3782 12.6564Z" fill="#C6D8E9"/>
	<path fill-rule="evenodd" clip-rule="evenodd" d="M14.9669 25.1808L17.2377 22.91C18.4579 22.1635 19.9081 21.7869 21.3529 21.8967C22.7477 22.027 24.1405 22.1808 25.5323 22.3426C25.7726 22.4187 25.9177 22.2425 26.0574 22.0727C26.1089 22.0103 26.1596 21.9487 26.214 21.9008C30.6663 16.9854 36.9169 13.9766 43.3782 12.6564C46.1912 12.1602 49.1439 11.6955 51.9739 12.4068C52.0095 12.5456 52.0423 12.6848 52.0722 12.8242L22.3312 42.5652C20.5803 40.982 19.6295 38.6481 19.5356 36.3235C18.4703 36.1752 17.3762 36.1091 16.2813 36.0428C15.5618 35.9993 14.8419 35.9558 14.1296 35.8889C13.8495 35.8566 13.5653 35.8458 13.2808 35.8349C12.7004 35.8128 12.1188 35.7906 11.5691 35.586C10.3289 35.0837 9.75757 33.4111 10.485 32.2898C11.0631 31.3755 11.6379 30.4589 12.2127 29.5423C13.1262 28.0856 14.0398 26.6287 14.9669 25.1808Z" fill="#E6F3FF"/>
	<path fill-rule="evenodd" clip-rule="evenodd" d="M15.3898 43.0096C15.3783 43.0208 15.3669 43.032 15.3556 43.0433C15.3441 43.0548 15.3328 43.0663 15.3214 43.0779L15.3898 43.0096ZM12.674 52.2219C12.8214 52.368 13.0365 52.4459 13.2648 52.4013C13.3958 52.3757 13.5258 52.3504 13.6549 52.3252C17.4291 51.5898 20.3767 51.0154 21.8521 49.5399C23.4991 47.8929 23.3801 45.1035 21.5864 43.3095L12.674 52.2219Z" fill="#FFC808"/>
	<path fill-rule="evenodd" clip-rule="evenodd" d="M44.8538 12.407C47.2123 12.0344 49.6351 11.819 51.9741 12.4069C52.6113 14.8904 52.3224 17.4785 51.9088 19.9758C50.2086 19.7223 48.5719 18.9412 47.263 17.6324C45.806 16.1753 45.0029 14.312 44.8538 12.407Z" fill="#171818"/>
	<path d="M42.1596 28.6146C40.5365 30.2377 37.9049 30.2377 36.2818 28.6146C34.6587 26.9915 34.6587 24.3599 36.2818 22.7368C37.9049 21.1136 40.5365 21.1136 42.1596 22.7368C43.7827 24.3599 43.7827 26.9915 42.1596 28.6146Z" fill="#37C3FF"/>
	<path fill-rule="evenodd" clip-rule="evenodd" d="M43.7064 30.1615C41.229 32.6389 37.2124 32.6389 34.735 30.1615C32.2576 27.6841 32.2576 23.6674 34.735 21.1901C37.2124 18.7127 41.229 18.7127 43.7064 21.1901C46.1838 23.6674 46.1838 27.6841 43.7064 30.1615ZM36.2818 28.6147C37.9049 30.2378 40.5365 30.2378 42.1596 28.6147C43.7827 26.9916 43.7827 24.36 42.1596 22.7369C40.5365 21.1137 37.9049 21.1137 36.2818 22.7369C34.6587 24.36 34.6587 26.9916 36.2818 28.6147Z" fill="#171818"/>
</svg>
