<?xml version="1.0" standalone="no"?>
<!DOCTYPE svg PUBLIC "-//W3C//DTD SVG 20010904//EN"
 "http://www.w3.org/TR/2001/REC-SVG-20010904/DTD/svg10.dtd">
<svg version="1.0" xmlns="http://www.w3.org/2000/svg"
 width="840.000000pt" height="913.000000pt" viewBox="0 0 840.000000 913.000000"
 preserveAspectRatio="xMidYMid meet">

<g transform="translate(0.000000,913.000000) scale(0.100000,-0.100000)"
fill="#000000" stroke="none">
<path d="M3074 7578 c-2465 -2472 -2806 -2816 -2826 -2849 -12 -19 -27 -58
-35 -88 -16 -59 -7 -124 27 -191 21 -42 -99 81 2144 -2173 l1809 -1818 76 75
c42 42 79 76 81 76 3 0 556 552 1230 1227 674 675 1521 1523 1883 1886 362
362 669 676 683 696 53 81 59 212 12 305 -13 28 -671 693 -1986 2009 -1082
1082 -1970 1967 -1973 1967 -3 0 -509 -505 -1125 -1122z m1316 -1960 c538
-530 1030 -1021 1030 -1027 0 -10 -1216 -1221 -1226 -1221 -10 0 -1214 1201
-1214 1211 0 7 1213 1219 1220 1219 2 0 88 -82 190 -182z"/>
</g>
</svg>
