<?xml version="1.0" standalone="no"?>
<!DOCTYPE svg PUBLIC "-//W3C//DTD SVG 20010904//EN"
 "http://www.w3.org/TR/2001/REC-SVG-20010904/DTD/svg10.dtd">
<svg version="1.0" xmlns="http://www.w3.org/2000/svg"
 width="400.000000pt" height="400.000000pt" viewBox="0 0 400.000000 400.000000"
 preserveAspectRatio="xMidYMid meet">

<g transform="translate(0.000000,400.000000) scale(0.100000,-0.100000)"
fill="#000000" stroke="none">
<path d="M1796 3909 c-487 -51 -949 -298 -1264 -674 -741 -884 -545 -2209 419
-2842 559 -366 1276 -413 1878 -123 972 470 1368 1632 883 2595 -357 710
-1124 1128 -1916 1044z m484 -1119 l0 -470 60 0 60 0 0 391 0 390 49 -26 c240
-131 394 -418 408 -762 l6 -133 63 0 64 0 0 -90 0 -90 -990 0 -990 0 0 90 0
90 63 0 62 0 1 163 c1 146 3 171 28 252 64 211 189 368 379 475 l57 32 0 -391
0 -391 60 0 60 0 0 470 0 470 280 0 280 0 0 -470z m-698 -1052 c6 -137 30
-198 110 -284 100 -106 218 -149 368 -132 93 10 175 54 248 132 80 86 104 147
110 284 l4 102 284 0 284 0 0 -188 0 -188 -97 1 c-54 0 -106 -2 -116 -5 -11
-3 -33 -38 -53 -82 l-35 -77 43 -39 c24 -21 59 -53 78 -70 l35 -30 -60 -64
c-32 -34 -97 -103 -143 -151 l-85 -89 -81 81 -82 82 -87 -37 -87 -37 0 -108 0
-109 -220 0 -220 0 0 109 0 108 -87 37 -87 37 -82 -82 -81 -81 -85 89 c-46 48
-111 117 -143 151 l-60 64 35 31 c20 18 55 49 78 70 l43 38 -32 72 c-18 40
-38 77 -44 82 -7 6 -60 10 -119 9 l-106 -1 0 188 0 189 284 0 284 0 4 -102z"/>
</g>
</svg>
