<svg width="230" height="230" viewBox="0 0 230 230" fill="none" xmlns="http://www.w3.org/2000/svg">
<path d="M115 230C178.513 230 230 178.513 230 115C230 51.4873 178.513 0 115 0C51.4873 0 0 51.4873 0 115C0 178.513 51.4873 230 115 230Z" fill="#272D68"/>
<path d="M166.804 103.771C166.465 105.336 170.939 64.0561 139.068 48.6982V95.5393H132.021V39.021H98.0567V95.4795H90.9408V48.6384C55.8398 65.5809 63.2048 103.712 63.2048 103.712H55.501V114.595H174.507V103.771H166.804Z" fill="#F5BB32"/>
<path d="M174.507 147.005V124.84H140.403V130.7C140.403 137.441 137.726 143.905 132.96 148.671C128.193 153.437 121.729 156.114 114.989 156.114C108.249 156.114 101.785 153.437 97.019 148.671C92.2529 143.905 89.5754 137.441 89.5754 130.7V124.84H55.501V147.005H69.354L73.8089 156.971L64.4606 165.243L81.5726 183.392L91.3494 173.535L101.943 178.08V190.966H128.065V178.08L138.659 173.535L148.436 183.392L165.548 165.243L156.219 156.951L160.674 146.985L174.507 147.005Z" fill="white"/>
</svg>
