<?xml version="1.0" encoding="utf-8"?>
<!-- Generator: Adobe Illustrator 19.2.1, SVG Export Plug-In . SVG Version: 6.00 Build 0)  -->
<svg version="1.1" id="layer" xmlns="http://www.w3.org/2000/svg" xmlns:xlink="http://www.w3.org/1999/xlink" x="0px" y="0px"
	 viewBox="0 0 652 652" style="enable-background:new 0 0 652 652;" xml:space="preserve">
<style type="text/css">
	.st0{fill:#07242D;}
	.st1{fill:#08B1D5;}
	.st2{fill:#FFC900;}
	.st3{opacity:0.89;fill:url(#SVGID_1_);enable-background:new    ;}
	.st4{opacity:0.82;fill:url(#SVGID_2_);enable-background:new    ;}
	.st5{fill:url(#SVGID_3_);}
	.st6{fill:url(#SVGID_4_);}
	.st7{fill:#FF445F;}
	.st8{fill:#1904DA;}
</style>
<path class="st0" d="M504.5,311.6c0,27.8-22.5,50.3-50.4,50.3c-27.8,0-50.4-22.6-50.4-50.4v-50.4h17.9v50.3l0,0c0,0,0,0,0,0
	c0,17.9,14.5,32.5,32.4,32.5c17.9,0,32.4-14.6,32.4-32.5c0,0,0,0,0,0l0,0v-50.3h18V311.6z M370.2,429.3h18.4V314.9c0.1-1,0-2,0-3
	c0-28-22.6-50.6-50.6-50.6c-28,0-50.6,22.7-50.6,50.6c0,28,22.7,50.6,50.6,50.6c0,0,0,0,0,0h2.6l18.6-18.5h-21.2
	c-17.7,0-32.1-14.4-32.1-32.1c0-17.7,14.4-32.1,32.1-32.1c17.7,0,32.2,14.4,32.2,32.1L370.2,429.3z M272.1,363h-51
	c-1.1,0-2.2,0-3.4-0.1c-26.8-1.8-47.5-24-47.6-50.9c1.2-57.4,78.9-70.3,98.9-17.3c2,5.6,3,11.4,3,17.3
	C272.1,312,272.1,363,272.1,363z M221.1,344.4h32.1c0,0,0-23.4,0-32.4c0.1-28.8-35-43-54.9-22.8l0,0c-6.1,6-9.5,14.2-9.5,22.8
	C188.9,329.8,203.3,344.4,221.1,344.4z M621.5,363h-51c-1.1,0-2.2,0-3.4-0.1c-26.8-1.8-47.5-24-47.6-50.9
	c1.2-57.4,78.9-70.3,98.9-17.3c2,5.6,3,11.4,3,17.3C621.5,312,621.5,363,621.5,363z M570.5,344.4h32.1c0,0,0-23.4,0-32.4
	c0.1-28.8-35-43-54.9-22.8l0,0c-6.1,6-9.5,14.2-9.5,22.8C538.2,329.8,552.7,344.4,570.5,344.4z"/>
<path class="st1" d="M47.5,344.1l0-60c0-3.7-4-3.7-4-3.7c-1.6,0-2.3,0.7-2.9,1.3l-17.2,17.2c-1.2,1.2-1.9,2.9-1.9,4.6v40.6H47.5z"/>
<path class="st2" d="M111.8,253.7l-40.6,0c-1.7,0-3.4,0.7-4.6,1.9l-17.2,17.2c-0.7,0.7-1.3,1.3-1.3,2.9c0,0,0,4,3.7,4h60V253.7z"/>
<linearGradient id="SVGID_1_" gradientUnits="userSpaceOnUse" x1="93.5763" y1="367.0557" x2="118.5461" y2="392.0254" gradientTransform="matrix(1 0 0 -1 0 652)">
	<stop  offset="0" style="stop-color:#FF445F;stop-opacity:0"/>
	<stop  offset="1" style="stop-color:#FF445F;stop-opacity:0.3"/>
</linearGradient>
<polygon class="st3" points="85.7,279.8 111.8,279.8 111.8,253.7 "/>
<linearGradient id="SVGID_2_" gradientUnits="userSpaceOnUse" x1="26.6356" y1="300.1679" x2="53.2638" y2="326.6739" gradientTransform="matrix(1 0 0 -1 0 652)">
	<stop  offset="0" style="stop-color:#1904DA;stop-opacity:0.2"/>
	<stop  offset="1" style="stop-color:#1904DA;stop-opacity:0"/>
</linearGradient>
<polyline class="st4" points="21.5,344.1 47.5,318.1 47.5,344.1 21.5,344.1 "/>
<linearGradient id="SVGID_3_" gradientUnits="userSpaceOnUse" x1="34.5053" y1="307.9438" x2="34.5053" y2="333.9494" gradientTransform="matrix(1 0 0 -1 0 652)">
	<stop  offset="0" style="stop-color:#1904DA;stop-opacity:0.3"/>
	<stop  offset="8.420000e-003" style="stop-color:#1904DA;stop-opacity:0.2783"/>
	<stop  offset="6.395000e-002" style="stop-color:#1904DA;stop-opacity:0.1566"/>
	<stop  offset="0.1207" style="stop-color:#1904DA;stop-opacity:6.932000e-002"/>
	<stop  offset="0.1788" style="stop-color:#1904DA;stop-opacity:1.716000e-002"/>
	<stop  offset="0.2406" style="stop-color:#1904DA;stop-opacity:0"/>
</linearGradient>
<polyline class="st5" points="21.5,344.1 47.5,318.1 47.5,344.1 21.5,344.1 "/>
<linearGradient id="SVGID_4_" gradientUnits="userSpaceOnUse" x1="-51.0399" y1="305.5561" x2="-51.0399" y2="331.5787" gradientTransform="matrix(0 1 -1 0 417.3271 317.7896)">
	<stop  offset="0" style="stop-color:#FF445F;stop-opacity:0.4"/>
	<stop  offset="8.000000e-003" style="stop-color:#FF445F;stop-opacity:0.3725"/>
	<stop  offset="5.232000e-002" style="stop-color:#FF445F;stop-opacity:0.2388"/>
	<stop  offset="9.754000e-002" style="stop-color:#FF445F;stop-opacity:0.134"/>
	<stop  offset="0.1435" style="stop-color:#FF445F;stop-opacity:5.928000e-002"/>
	<stop  offset="0.1906" style="stop-color:#FF445F;stop-opacity:1.467000e-002"/>
	<stop  offset="0.2406" style="stop-color:#FF445F;stop-opacity:0"/>
</linearGradient>
<polyline class="st6" points="111.8,253.7 85.7,279.8 111.8,279.8 111.8,253.7 "/>
<path class="st7" d="M137.1,255.9c-0.8-1.3-2.3-2.2-3.9-2.2h-21.5c0,16.9,0,68.4,0,86c0,3.7,3.8,3.7,4,3.7c1.6,0,2.3-0.7,2.9-1.3
	l17.2-17.2c1.2-1.2,1.9-2.9,1.9-4.6V258C137.8,257.2,137.5,256.5,137.1,255.9z"/>
<path class="st8" d="M23.7,369.5c-1.4-0.8-2.2-2.3-2.2-3.9v-21.5h86c3.7,0,3.7,3.7,3.7,3.9c0,1.6-0.7,2.3-1.3,2.9l-17.2,17.2
	c-1.2,1.2-2.9,1.9-4.6,1.9l-62.4,0.1C25,370.1,24.3,369.9,23.7,369.5z"/>
</svg>
