<svg width="122" height="122" viewBox="0 0 122 122" fill="none" xmlns="http://www.w3.org/2000/svg">
<path d="M1.88257 61.0009C1.88257 28.3563 28.3556 1.8833 61.0001 1.8833C93.6447 1.8833 120.118 28.3563 120.118 61.0009C120.118 93.6454 93.6447 120.118 61.0001 120.118C28.3556 120.118 1.88257 93.6454 1.88257 61.0009Z" fill="#F1784A"/>
<path d="M9.77885 60.8006C9.77885 88.8201 32.4931 111.534 60.5126 111.534C88.5321 111.534 111.246 88.8201 111.246 60.8006C111.246 32.7812 88.5321 10.0669 60.5126 10.0669C32.4931 10.0669 9.77885 32.7812 9.77885 60.8006Z" stroke="white" stroke-width="2.1621"/>
<path d="M60.3718 30.7017C68.8383 30.7017 82.8081 37.0986 82.8081 51.9621C82.8081 66.8255 81.5854 95.5241 80.9425 106.75C77.9636 109.321 69.6285 111.802 60.3718 111.275V30.7017Z" fill="white"/>
<ellipse rx="13.4053" ry="13.4053" transform="matrix(-1 0 0 1 76.4106 65.6978)" fill="#F1784A"/>
<ellipse rx="10.8183" ry="10.8183" transform="matrix(-1 0 0 1 76.1756 65.9321)" fill="white"/>
<circle r="3.29254" transform="matrix(-1 0 0 1 76.4577 64.0518)" fill="#F1784A"/>
<path d="M60.9355 99.1394C63.8517 99.1394 68.3672 96.3172 68.9316 85.8281C68.9316 86.3455 64.275 90.0614 60.9355 90.0614V99.1394Z" fill="#F1784A"/>
<path d="M60.9355 93.8713C63.8517 93.8713 68.9316 91.7077 68.9316 85.8281C68.9316 86.3455 64.275 90.0614 60.9355 90.0614V93.8713Z" fill="white"/>
<rect width="4.23326" height="22.2952" rx="0.80193" transform="matrix(-1 0 0 1 113.799 48.9048)" fill="white"/>
<path d="M60.9353 30.7017C52.4688 30.7017 38.499 37.0986 38.499 51.9621C38.499 66.8255 39.7847 95.5241 40.4275 106.75C43.4065 109.321 51.6786 111.802 60.9353 111.275V30.7017Z" fill="white"/>
<ellipse cx="44.8965" cy="65.6978" rx="13.4053" ry="13.4053" fill="#F1784A"/>
<ellipse cx="45.1316" cy="65.9321" rx="10.8183" ry="10.8183" fill="white"/>
<ellipse cx="44.8494" cy="64.0518" rx="3.29254" ry="3.29254" fill="#F1784A"/>
<path d="M60.9354 99.1853C58.0191 99.1853 53.5036 96.3631 52.9392 85.874C52.9392 86.3914 57.5958 90.1073 60.9354 90.1073V99.1853Z" fill="#F1784A"/>
<path d="M60.9354 93.8713C58.0191 93.8713 52.9392 91.7077 52.9392 85.8281C52.9392 86.3455 57.5958 90.0614 60.9354 90.0614V93.8713Z" fill="white"/>
<rect x="7.5083" y="48.9048" width="4.23326" height="22.2952" rx="0.80193" fill="white"/>
</svg>
