<svg width="153" height="70" viewBox="0 0 153 70" fill="none" xmlns="http://www.w3.org/2000/svg">
    <path d="M119.174 18.7384C116.865 18.1455 114.425 18.2996 112.212 19.178C109.999 20.0565 108.13 21.6129 106.879 23.6187C105.647 25.6351 105.108 27.9903 105.341 30.3339C105.574 32.6774 106.567 34.884 108.172 36.6254C109.776 38.3668 111.908 39.55 114.248 39.9988C116.588 40.4477 119.013 40.1383 121.161 39.1167C121.602 38.9136 121.976 38.4625 122.554 38.658C122.676 40.9966 122.364 42.2824 121.351 43.5909C118.588 47.1627 113.487 46.7942 110.891 42.8314C109.871 41.2748 108.708 40.8537 107.404 41.5681C106.026 42.3276 105.767 43.6661 106.719 45.2978C108.035 47.5767 110.133 49.3157 112.634 50.2006C113.083 50.3661 113.022 50.3661 113.708 50.6217C114.492 50.9225 116.905 50.9977 118.024 50.7947C118.508 50.6955 118.984 50.5623 119.448 50.3961C121.715 49.7553 123.717 48.4178 125.162 46.5776C126.608 44.7374 127.422 42.4902 127.487 40.1619C127.571 36.4096 127.586 32.6573 127.48 28.905C127.393 26.5517 126.536 24.2896 125.039 22.457C123.542 20.6245 121.484 19.3199 119.174 18.7384H119.174ZM110.114 29.3035C110.1 28.083 110.452 26.8856 111.127 25.863C111.802 24.8404 112.769 24.0385 113.905 23.5586C115.042 23.0788 116.296 22.9427 117.511 23.1675C118.726 23.3923 119.846 23.968 120.729 24.8216C121.613 25.6752 122.22 26.7684 122.474 27.963C122.728 29.1575 122.618 30.3997 122.157 31.5324C121.697 32.665 120.906 33.6373 119.886 34.3261C118.865 35.0149 117.661 35.3893 116.425 35.402C115.605 35.4121 114.791 35.2622 114.03 34.961C113.268 34.6597 112.575 34.213 111.988 33.6465C111.402 33.08 110.935 32.4047 110.613 31.6595C110.292 30.9142 110.122 30.1136 110.114 29.3035H110.114Z" fill="white"/>
    <path d="M151.142 26.0625C149.467 20.9491 144.313 17.7007 139.037 18.4677C137.096 18.7394 135.263 19.5155 133.726 20.7166C132.188 21.9178 131.001 23.5008 130.286 25.3037C129.571 27.1067 129.354 29.0649 129.657 30.9779C129.96 32.8909 130.772 34.6901 132.01 36.1914C133.248 37.6926 134.868 38.8421 136.703 39.5222C138.539 40.2023 140.524 40.3886 142.456 40.0619C144.389 39.7353 146.198 38.9075 147.701 37.6633C149.203 36.4191 150.343 34.8031 151.005 32.9806C151.327 32.2313 151.554 31.4459 151.683 30.642C151.781 29.5804 151.735 28.5106 151.546 27.4612C151.435 26.9885 151.3 26.5217 151.142 26.0625ZM140.476 35.4019C139.26 35.3777 138.077 34.9994 137.078 34.3143C136.078 33.6292 135.305 32.6679 134.857 31.5509C134.408 30.4338 134.303 29.2108 134.555 28.0351C134.807 26.8594 135.405 25.7834 136.274 24.9419C137.142 24.1005 138.243 23.531 139.438 23.305C140.633 23.079 141.869 23.2065 142.991 23.6715C144.113 24.1365 145.071 24.9182 145.745 25.9188C146.419 26.9194 146.779 28.0942 146.78 29.296C146.774 30.1062 146.605 30.9073 146.285 31.6532C145.965 32.3991 145.498 33.0752 144.912 33.6425C144.327 34.2099 143.633 34.6574 142.872 34.9593C142.111 35.2612 141.296 35.4116 140.476 35.4019Z" fill="white"/>
    <path d="M90.1985 26.9648C89.8904 25.4901 89.2704 24.0963 88.3791 22.8746C87.4879 21.653 86.3454 20.631 85.0266 19.8757C83.7077 19.1204 82.2422 18.6487 80.726 18.4916C79.2098 18.3345 77.6771 18.4954 76.2282 18.9639C74.7573 19.4052 73.3956 20.1445 72.23 21.1346C71.0644 22.1247 70.1206 23.3439 69.4587 24.7143C68.7968 26.0848 68.4314 27.5766 68.3857 29.0943C68.3401 30.6121 68.6153 32.1226 69.1936 33.5295C71.5766 39.2594 78.7939 41.8838 84.481 39.079C85.1509 38.7481 85.6534 38.2669 86.3005 39.2594C86.5729 39.6828 86.9943 39.9916 87.4835 40.1263C87.9727 40.261 88.4951 40.212 88.9499 39.9888C89.4218 39.8224 89.8248 39.5064 90.096 39.0903C90.3673 38.6741 90.4916 38.1811 90.4497 37.6878C90.4421 36.1313 90.4497 34.5747 90.4497 32.6196C90.3507 30.9953 90.6553 28.9575 90.1985 26.9648ZM79.441 35.4019C75.8933 35.3567 73.1068 32.6271 73.2058 29.2959C73.2844 27.67 73.99 26.1355 75.1777 25.0071C76.3655 23.8787 77.9453 23.242 79.5933 23.2276C80.411 23.243 81.2175 23.419 81.9658 23.7453C82.714 24.0716 83.3891 24.5416 83.9516 25.1281C84.5142 25.7145 84.953 26.4056 85.2426 27.1612C85.5321 27.9167 85.6666 28.7216 85.6382 29.529C85.6001 32.9505 82.9659 35.447 79.441 35.4019Z" fill="white"/>
    <path d="M105.989 20.6109C105.867 19.0393 104.527 18.2347 102.449 18.4603C100.05 18.6968 97.7946 19.6978 96.0229 21.3121C94.2512 22.9264 93.0594 25.0663 92.6276 27.4086C92.2621 29.2886 92.5438 31.2061 92.4601 32.7852C92.4601 34.4846 92.4525 35.8682 92.4601 37.2519C92.4753 39.1543 93.328 40.2071 94.8506 40.2221C96.3733 40.2447 97.3021 39.1769 97.3249 37.3045C97.3478 34.6576 97.3021 32.0031 97.3402 29.3562C97.3858 26.0476 99.7079 23.4157 103.02 23.2804C104.984 23.1976 106.088 21.9118 105.989 20.6109Z" fill="white"/>
    <path d="M24.0068 55.7246C24.0127 55.7246 24.0187 55.7421 24.0187 55.7771C24.0245 56.0224 24.0305 56.2617 24.0364 56.5069C24.0718 56.3201 24.1073 56.1333 24.1487 55.9406C24.1191 55.5845 23.8354 55.7655 24.0068 55.7246Z" fill="#FEFEFE"/>
    <path d="M39.5179 35.7576C39.5117 35.7637 39.4993 35.7637 39.4932 35.7698C39.4993 35.7759 39.5117 35.7821 39.5179 35.7882C39.5117 35.7821 39.5179 35.7698 39.5179 35.7576Z" fill="#FEFEFE"/>
    <path d="M29.7461 11.2483V11.2549H29.7662C29.7595 11.2549 29.7528 11.2483 29.7461 11.2483Z" fill="#FEFEFE"/>
    <path d="M38.0511 60.4713C38.128 59.6247 38.0866 58.7665 38.193 57.9258C38.4294 56.0751 38.2048 54.1834 38.6954 52.356C38.9378 51.4102 38.1634 50.301 39.1565 49.4719L38.9082 48.6662C38.8035 48.4565 38.7516 48.225 38.7567 47.9913C38.7619 47.7575 38.824 47.5284 38.9378 47.3234C38.8795 45.7006 38.9784 44.076 39.2333 42.4718C39.322 40.2415 39.4166 38.0113 39.5052 35.7752C39.4993 35.7694 39.4875 35.7636 39.4816 35.7577C34.6523 37.9471 30.1009 34.882 29.3266 31.2038C28.8182 28.7868 29.0901 26.504 30.9994 24.6591C31.3185 24.3497 31.5905 23.9935 31.886 23.6549C32.6662 19.0368 32.1224 14.7982 28.1266 11.4937C28.7236 11.1551 29.2615 11.3477 29.7462 11.2602V11.2544C24.8461 10.04 18.8996 13.3504 16.9313 18.4064C16.3192 19.9004 16.0429 21.508 16.1215 23.1179C20.9803 20.8935 25.3367 23.5499 26.5366 27.5959C27.7838 31.8053 24.4618 36.2599 20.0464 36.3241C18.782 36.3301 17.5242 36.1451 16.3166 35.7753C16.4052 38.099 16.4959 40.4226 16.5885 42.7463C16.805 44.2622 16.8979 45.7929 16.8663 47.3235C16.8781 47.6855 16.8899 48.0475 16.9018 48.4094C16.8899 48.6488 16.8781 48.8882 16.8663 49.1334C17.1737 50.6008 17.3575 52.0907 17.416 53.588C17.4053 53.5497 17.3974 53.5107 17.3924 53.4713C17.3983 53.5121 17.4101 53.5472 17.416 53.588C17.5342 56.1277 17.6052 58.6732 17.7884 61.2129C17.8652 62.2638 17.481 62.7892 16.4998 63.0578C15.3412 63.3789 14.2004 63.7642 13.0537 64.1262C14.5669 64.3141 16.0929 64.3805 17.617 64.3247C19.2543 64.2897 19.9991 63.5716 20.1587 61.966C20.2592 60.9443 20.3478 59.9226 20.4424 58.9009C20.5488 57.0502 20.6552 55.1936 20.7616 53.3428H20.9921V58.6265C21.0217 59.4264 21.0335 60.232 21.0867 61.0319C21.3231 64.7626 21.4354 64.7392 17.6702 65.4924C17.5839 65.5188 17.5008 65.5541 17.4219 65.5975C17.6465 65.7434 17.8711 65.8894 18.0957 66.0412C18.1298 66.0466 18.1623 66.0594 18.1909 66.0785C18.2195 66.0977 18.2435 66.1228 18.2612 66.1521C19.1597 66.1579 20.0641 66.2338 20.9507 66.1521C22.5644 66.0003 23.3269 65.1479 23.4452 63.5657C23.5161 62.5499 23.6225 61.534 23.7111 60.5181C23.6192 59.1768 23.7268 57.8294 24.0303 56.5189C24.0244 56.2737 24.0185 56.0343 24.0126 55.7891C24.0126 55.7541 24.0008 55.7307 24.0008 55.7365C23.8293 55.7774 24.1131 55.5964 24.1426 55.9526C24.1722 55.7949 24.2077 55.6373 24.2372 55.4797V61.5982C24.2549 62.3163 24.2786 63.0286 24.2904 63.7467C24.32 66.3448 24.1545 66.5783 21.6482 67.3198C20.9566 67.5241 20.2355 67.6467 19.5498 67.8744C19.0533 68.0437 18.4208 67.9503 17.9539 68.5283C19.9931 68.4524 21.9024 68.6801 23.7998 68.3765C25.7622 68.0612 26.5425 67.2789 26.9444 65.3873C27.24 63.9977 27.3641 62.5674 27.902 61.1603C27.9629 61.2564 28.0144 61.3581 28.0557 61.4639C28.3276 62.7775 28.5995 64.097 28.8596 65.4106C29.2261 67.2497 29.9827 68.032 31.8742 68.359C33.8307 68.6917 35.8109 68.4641 37.8383 68.5108C37.5487 68.0203 37.0935 68.1021 36.727 67.997C35.468 67.635 34.1853 67.3256 32.9499 66.9052C32.0515 66.5958 31.4072 66.0295 31.419 64.9377C31.4486 61.9485 31.4308 58.9593 31.4308 55.9701H31.7973C31.9274 57.8442 32.081 59.7124 32.1815 61.5865C32.412 65.9186 32.9322 66.3915 37.3359 66.1521C37.5841 65.7434 38.193 66.0645 38.4235 65.6266C37.3654 65.6208 36.4433 65.1187 35.4739 64.7976C35.2125 64.7087 34.9883 64.5367 34.8364 64.3085C34.6845 64.0803 34.6135 63.8088 34.6345 63.5365C34.6818 60.4656 34.5636 57.3829 34.9833 54.3237C35.2375 56.8925 35.4384 59.4672 35.6394 62.0361C35.734 63.2388 36.2837 64.1787 37.5605 64.2605C39.2865 64.3772 41.0184 64.2897 42.7503 64.2897C41.8497 63.8768 40.9167 63.5371 39.9603 63.2738C37.8442 62.6024 37.856 62.5966 38.0511 60.4714L38.0511 60.4713ZM24.7397 16.6664C24.7358 17.0772 24.569 17.47 24.2749 17.7604C23.9809 18.0508 23.5832 18.2157 23.1674 18.2194C22.2393 18.2369 21.5418 17.7115 21.5241 16.5205C21.5281 16.3161 21.5741 16.1147 21.6592 15.9284C21.7444 15.7421 21.8669 15.5749 22.0195 15.4368C22.172 15.2987 22.3514 15.1926 22.5466 15.125C22.7419 15.0573 22.9491 15.0296 23.1555 15.0434C24.2609 15.0259 24.7574 15.7615 24.7397 16.6664ZM31.8446 42.2032C31.8505 44.5677 30.0181 46.6287 27.9257 46.6228C25.9514 46.617 23.9358 44.3167 24.0067 42.1448C23.9003 41.5026 23.788 40.8546 23.6402 39.9555C25.0529 40.9071 26.241 41.8821 27.8311 41.9172C29.4566 41.9463 30.7334 41.1231 32.0633 40.1598C32.3471 40.9305 31.6318 41.5318 31.8446 42.2032H31.8446Z" fill="#FE733E"/>
    <path d="M16.8722 47.3174C16.754 47.2766 16.6417 47.224 16.5294 47.1831C14.9448 46.4992 13.485 45.5622 12.2085 44.4099C7.51521 40.4048 4.41785 35.3898 3.66716 29.3062C2.81597 22.3937 4.38238 16.0124 9.05203 10.5302C13.3138 5.53261 18.746 2.6193 25.2303 1.94789C32.4357 1.20642 38.9082 3.19729 44.3581 8.11316C48.8074 12.0146 51.6181 17.419 52.2374 23.2636C52.876 28.2803 51.8227 33.3651 49.2406 37.7309C46.8348 41.7886 43.6311 45.0814 39.2984 47.1656C39.1801 47.224 39.0619 47.2824 38.9437 47.335C38.8285 47.5395 38.7656 47.7687 38.7605 48.0027C38.7553 48.2367 38.8081 48.4685 38.9142 48.6778C39.0067 48.5794 39.1097 48.4913 39.2215 48.415C45.7649 44.9938 50.3046 39.9086 52.4266 32.8326C52.6098 32.2312 52.8935 31.9335 53.5733 32.0035C54.4954 32.0969 54.7437 31.4897 54.7437 30.7308C54.7495 27.8174 54.7514 24.9061 54.7495 21.9966C54.7495 21.3719 54.5958 20.683 53.9397 20.613C52.7339 20.4728 52.5861 19.6029 52.3438 18.7564C51.0097 13.931 48.1318 9.66097 44.1394 6.58351C35.8049 0.120498 26.6548 -1.04716 17.0554 3.3199C9.92086 6.56016 5.37534 12.1825 3.31833 19.708C3.18828 20.1751 3.2474 20.7297 2.44351 20.5663C1.29679 20.3327 0.865283 20.9983 0.859372 22.0025C0.841641 24.9158 0.853481 27.8233 0.853481 30.7366C0.853481 31.7058 1.35 32.2195 2.29576 31.9919C3.16466 31.7817 3.37155 32.2079 3.54888 32.8618C4.31731 35.6296 5.60231 38.2314 7.33779 40.5333C9.87951 43.937 12.9768 46.6694 16.9135 48.4092C16.9017 48.0472 16.8899 47.6794 16.8722 47.3174L16.8722 47.3174Z" fill="#B5D2F3"/>
    <path d="M16.8782 49.1273C16.0034 51.5502 13.6745 51.4918 11.6943 52.099C13.1839 52.4785 14.6971 52.9164 16.1867 52.6653C17.0733 52.5135 17.2447 52.8288 17.3748 53.3484C17.3866 53.3893 17.3925 53.4302 17.4043 53.471C17.4102 53.506 17.422 53.5469 17.428 53.5878C17.3695 52.0885 17.1856 50.5966 16.8782 49.1273Z" fill="#FE684B"/>
    <path d="M38.6957 52.3618C40.5872 53.2084 42.3724 52.356 44.1988 52.1107C42.4137 51.3634 40.1025 51.7488 39.1627 49.4777C38.1638 50.3067 38.9381 51.416 38.6957 52.3618Z" fill="#FE6446"/>
    <path d="M24.2434 55.4679C24.2138 55.6255 24.1784 55.7831 24.1488 55.9408C24.1134 56.1276 24.072 56.3145 24.0365 56.5071C23.733 57.8176 23.6255 59.165 23.7173 60.5064C24.1607 60.7341 23.8356 61.3354 24.2434 61.5806L24.2434 55.4679Z" fill="#FED6C8"/>
    <path d="M20.7733 53.3309C20.6669 55.1817 20.5605 57.0383 20.4541 58.889C20.6373 58.7956 20.8206 58.708 21.0038 58.6146V53.3309H20.7733Z" fill="#FEEBE3"/>
    <path d="M15.2168 66.1401H18.2668C18.2136 66.1051 18.1545 66.0701 18.1013 66.0292C17.8767 65.8832 17.6521 65.7373 17.4275 65.5855C16.6533 65.5686 15.889 65.7603 15.2168 66.1401Z" fill="#FE9166"/>
    <path d="M37.3359 66.14H40.3032C39.7603 65.7489 39.0935 65.5625 38.4236 65.6145C38.193 66.0582 37.5783 65.7313 37.3359 66.14Z" fill="#FE8F64"/>
    <path d="M39.304 47.1596C43.6367 45.0812 46.8345 41.7884 49.2462 37.7249C51.8284 33.3591 52.8816 28.2743 52.243 23.2576C51.6289 17.4114 48.8173 12.0054 44.3638 8.10717C38.9139 3.19715 32.4414 1.20045 25.2359 1.94775C18.7575 2.61332 13.3194 5.53247 9.05764 10.5301C4.38207 16.0122 2.82158 22.3935 3.67276 29.3061C4.42345 35.3954 7.52079 40.4047 12.2141 44.4098C13.491 45.5615 14.9507 46.4984 16.535 47.183C16.6473 47.2297 16.7596 47.2764 16.8778 47.3173C16.9094 45.7866 16.8165 44.256 16.6 42.74C16.4818 42.6583 16.3636 42.5765 16.2454 42.489C15.0762 41.5959 13.9848 40.6077 12.9825 39.5348C12.6692 39.2195 12.2791 38.951 12.2791 38.4372C11.5816 38.9334 11.0792 38.589 10.6713 38.0402C8.38199 35.0736 7.04942 31.4953 6.84695 27.7706C6.68144 24.396 6.98881 21.1149 8.42517 17.9564C10.1799 14.0549 13.1166 10.7871 16.8305 8.60341C17.4689 8.21808 17.8354 8.56255 18.2787 8.84861C18.4891 8.84045 18.6953 8.78836 18.8838 8.69578C19.0722 8.6032 19.2387 8.47222 19.3723 8.31148L19.3191 8.18889C18.9408 7.40071 18.923 6.50745 19.8333 6.29727C20.7495 6.08125 21.2697 6.81688 21.2756 7.76852C28.1146 5.54997 34.4747 6.44907 40.2143 10.7753C44.5056 14.0097 46.9646 18.3476 47.7153 23.6371C48.6847 30.4387 46.3558 36.0785 41.5561 40.8484C40.9896 41.4223 40.3402 41.9102 39.6291 42.2963C39.505 42.3605 39.3808 42.4189 39.2567 42.4773C39.0018 44.0815 38.9029 45.7061 38.9612 47.3289C39.0675 47.2764 39.1799 47.218 39.304 47.1596Z" fill="#E2F5FC"/>
    <path d="M41.5443 40.8545C46.3381 36.0845 48.667 30.4448 47.7035 23.6431C46.9528 18.3478 44.4939 14.0099 40.2025 10.7813C34.463 6.45512 28.0969 5.56186 21.2638 7.77458C21.252 7.78034 21.2402 7.7921 21.2283 7.79792C20.6905 8.13654 20.2708 8.86633 19.4964 8.41093C19.4492 8.38172 19.4078 8.35839 19.3605 8.32336C19.2274 8.48458 19.061 8.61589 18.8724 8.70852C18.6838 8.80114 18.4774 8.85295 18.267 8.86048C18.2492 8.93054 18.2256 8.99476 18.2019 9.06482C17.7113 10.4251 16.2395 10.7813 15.2524 11.5986C12.6051 13.7203 10.589 16.5105 9.41826 19.673C7.53858 24.8458 7.92279 29.9134 10.4409 34.8059C10.8589 35.5995 11.3433 36.3572 11.889 37.0712C12.1865 37.4602 12.3219 37.947 12.2673 38.4315V38.449C12.2673 38.957 12.6575 39.2314 12.9707 39.5466C13.9744 40.6181 15.0657 41.6062 16.2336 42.5008C16.3518 42.5826 16.47 42.6701 16.5882 42.7519C16.4996 40.4282 16.4089 38.1046 16.3163 35.7809C16.3104 35.7809 16.3104 35.7751 16.3045 35.7751C14.2593 34.4498 12.7579 32.7567 12.4979 30.2346C12.1728 27.1227 13.4968 24.8224 16.074 23.1468C16.0858 23.141 16.0976 23.1293 16.1095 23.1235C16.0298 21.5135 16.3062 19.9058 16.9193 18.412C18.8876 13.3618 24.834 10.0457 29.7342 11.26C29.7374 11.2597 29.7407 11.26 29.7437 11.261C29.7468 11.262 29.7496 11.2636 29.7519 11.2658C33.003 11.7854 35.6747 13.2508 37.5899 15.9423C39.1351 18.0141 39.8983 20.5544 39.7474 23.1234C41.5916 24.5071 43.0811 26.1301 43.3235 28.5297C43.6486 31.7583 42.2536 34.117 39.505 35.7634V35.7926C39.4163 38.0228 39.3218 40.253 39.2331 42.4891C39.3632 42.4307 39.4873 42.3723 39.6055 42.3081C40.3237 41.925 40.9777 41.4347 41.5443 40.8544L41.5443 40.8545Z" fill="#CDECF6"/>
    <path d="M33.5828 22.8608C35.6103 21.8742 37.5786 22.4055 39.5351 23.0418C39.6061 23.0652 39.6829 23.0885 39.7538 23.1119C39.9065 20.5427 39.1431 18.0019 37.5963 15.9308C35.6812 13.2393 33.0094 11.7739 29.7584 11.2543H29.7407C29.256 11.3477 28.7181 11.1492 28.1211 11.4878C32.1169 14.7923 32.6666 19.0309 31.8805 23.649C32.0046 23.5906 32.1228 23.5381 32.2469 23.4797C32.7021 23.2754 33.1454 23.0769 33.5828 22.8608Z" fill="#FE6B3C"/>
    <path d="M43.3362 28.5238C43.0938 26.1243 41.6043 24.5012 39.76 23.1175C39.6891 23.0942 39.6123 23.0708 39.5413 23.0475C37.5789 22.4111 35.6165 21.8798 33.589 22.8665C33.1516 23.0825 32.7024 23.2869 32.2591 23.4912C32.1349 23.5496 32.0167 23.6021 31.8926 23.6605C31.597 23.9933 31.3251 24.3553 31.0059 24.6647C29.0908 26.5096 28.8248 28.7924 29.3331 31.2094C30.1075 34.8934 34.6589 37.9585 39.4941 35.775C39.5 35.7692 39.5118 35.7692 39.5177 35.7633C42.2663 34.1111 43.6672 31.7466 43.3362 28.5238ZM36.1071 34.9752C34.998 34.9636 33.9174 34.6272 33.002 34.0086C32.0866 33.3901 31.3776 32.5171 30.9649 31.5003C30.5521 30.4835 30.4541 29.3686 30.6832 28.2967C30.9124 27.2249 31.4584 26.2443 32.2521 25.4791C33.0459 24.714 34.0516 24.1987 35.1421 23.9984C36.2325 23.7982 37.3586 23.9221 38.3777 24.3544C39.3968 24.7867 40.2631 25.5079 40.867 26.4268C41.4708 27.3457 41.785 28.421 41.7698 29.5163C41.7745 30.2459 41.6302 30.9689 41.3455 31.6421C41.0609 32.3153 40.6417 32.925 40.1131 33.4345C39.5845 33.9441 38.9573 34.3432 38.269 34.6079C37.5807 34.8726 36.8454 34.9975 36.1071 34.9752Z" fill="#FE6142"/>
    <path d="M16.0797 23.1353C13.5025 24.8109 12.1784 27.1112 12.5035 30.223C12.7636 32.7451 14.265 34.4382 16.3102 35.7635C16.3161 35.7635 16.3161 35.7694 16.322 35.7694C17.5296 36.1395 18.7874 36.3246 20.0518 36.3181C24.4614 36.2539 27.7892 31.8051 26.542 27.5899C25.3421 23.5439 20.9798 20.8875 16.1269 23.1119C16.11 23.1172 16.0941 23.1251 16.0796 23.1352L16.0797 23.1353ZM19.6026 34.9754C18.8606 34.9849 18.124 34.8495 17.4351 34.5768C16.7463 34.3042 16.1188 33.8998 15.5888 33.3868C15.0587 32.8738 14.6366 32.2624 14.3466 31.5877C14.0566 30.9131 13.9045 30.1884 13.8991 29.4555C13.8936 28.7225 14.0349 27.9957 14.3148 27.3169C14.5947 26.6381 15.0077 26.0206 15.5301 25.5C16.0524 24.9794 16.6738 24.5659 17.3585 24.2833C18.0432 24.0007 18.7778 23.8546 19.5198 23.8534C20.2648 23.8392 21.0052 23.9712 21.6981 24.2417C22.391 24.5122 23.0227 24.9159 23.5565 25.4293C24.0904 25.9427 24.5157 26.5556 24.808 27.2326C25.1002 27.9096 25.2535 28.6371 25.259 29.373C25.2644 30.1089 25.122 30.8386 24.8398 31.5197C24.5577 32.2009 24.1415 32.8199 23.6154 33.341C23.0893 33.8621 22.4637 34.2749 21.7748 34.5555C21.086 34.836 20.3477 34.9787 19.6026 34.9754Z" fill="#FE6143"/>
    <path d="M24.7515 42.6585C24.5328 42.4425 24.3732 42.1506 24.0067 42.1448C23.9358 44.3166 25.9455 46.6169 27.9257 46.6228C30.0241 46.6286 31.8505 44.5677 31.8446 42.2032C31.0526 42.606 30.5501 43.435 29.6398 43.6802C27.8252 44.1707 26.1583 44.0481 24.7515 42.6585Z" fill="#070909"/>
    <path d="M32.0637 40.1595C30.7338 41.1229 29.4629 41.9461 27.8315 41.9169C26.2355 41.8877 25.0533 40.9068 23.6406 39.9552C23.7943 40.8543 23.9007 41.4965 24.0071 42.1446C24.3736 42.1562 24.5332 42.4423 24.7519 42.6583C26.1528 44.0479 27.8256 44.1705 29.6402 43.68C30.5505 43.4348 31.0529 42.6116 31.845 42.203C31.6322 41.5315 32.3475 40.9302 32.0637 40.1595Z" fill="#FDFCFB"/>
    <path d="M23.1558 15.0491C22.9489 15.0333 22.741 15.0597 22.5448 15.1266C22.3486 15.1935 22.1685 15.2994 22.0155 15.4379C21.8626 15.5764 21.74 15.7445 21.6556 15.9317C21.5711 16.1189 21.5264 16.3213 21.5244 16.5262C21.5421 17.7172 22.2396 18.2368 23.1677 18.2252C23.5835 18.2214 23.9812 18.0566 24.2752 17.7661C24.5693 17.4757 24.7361 17.0829 24.74 16.6722C24.7577 15.7614 24.2612 15.0258 23.1558 15.0491Z" fill="#FEA777"/>
    <path d="M12.2675 38.4258C12.3221 37.9413 12.1867 37.4545 11.8892 37.0655C11.3456 36.3501 10.8613 35.5926 10.4411 34.8002C7.92299 29.9077 7.53286 24.84 9.41846 19.6673C10.5892 16.5048 12.6052 13.7146 15.2526 11.5929C16.2397 10.7756 17.7115 10.4253 18.2021 9.05909C18.2273 8.99212 18.249 8.92391 18.2672 8.85475C17.8238 8.56867 17.4574 8.22421 16.819 8.60954C13.105 10.7932 10.1683 14.0611 8.41359 17.9625C6.97724 21.121 6.66986 24.4022 6.83537 27.7767C7.0416 31.5007 8.37378 35.0779 10.6598 38.0463C11.0676 38.5951 11.576 38.9396 12.2675 38.4433L12.2675 38.4258Z" fill="#FDFEFE"/>
    <path d="M21.2232 7.7979C21.2351 7.79214 21.2469 7.78039 21.2587 7.77457C21.2469 6.82293 20.7326 6.0873 19.8164 6.30331C18.9062 6.51933 18.9239 7.41259 19.3022 8.19492L19.3554 8.31752C19.3988 8.34946 19.4442 8.37871 19.4913 8.4051C20.2657 8.86633 20.6854 8.1307 21.2233 7.79792L21.2232 7.7979Z" fill="#FBFDFE"/>
    <path d="M41.7695 29.5221C41.79 28.7926 41.6622 28.0665 41.3936 27.3866C41.125 26.7067 40.7212 26.087 40.2059 25.5639C39.6907 25.0408 39.0745 24.6251 38.3938 24.3413C37.7131 24.0575 36.9817 23.9113 36.2428 23.9115C35.5049 23.8994 34.7718 24.0315 34.0857 24.3C33.3995 24.5685 32.7739 24.9682 32.2446 25.4762C31.7153 25.9842 31.2928 26.5905 31.0013 27.2602C30.7099 27.9299 30.5553 28.6499 30.5463 29.3788C30.5374 30.1077 30.6743 30.8312 30.9492 31.5077C31.2241 32.1842 31.6315 32.8004 32.1482 33.3209C32.6649 33.8415 33.2806 34.2561 33.9599 34.5409C34.6392 34.8258 35.3688 34.9754 36.1068 34.981C36.8449 35.0023 37.5797 34.8767 38.2676 34.6116C38.9554 34.3466 39.5822 33.9475 40.1107 33.4381C40.6391 32.9287 41.0582 32.3195 41.3432 31.6467C41.6282 30.974 41.7732 30.2514 41.7695 29.5221ZM36.3847 30.1293C36.158 30.1516 35.929 30.1263 35.7129 30.0552C35.4967 29.984 35.2982 29.8687 35.1303 29.7166C34.9624 29.5645 34.8288 29.3791 34.7384 29.1726C34.6479 28.966 34.6027 28.743 34.6055 28.518C34.5908 28.2835 34.6256 28.0486 34.7078 27.8281C34.7899 27.6076 34.9176 27.4065 35.0827 27.2374C35.2478 27.0683 35.4467 26.9349 35.6668 26.8458C35.8868 26.7567 36.1233 26.7138 36.361 26.7198C37.4014 26.7957 37.9865 27.397 38.1107 28.4712C37.9688 29.4287 37.4723 30.1118 36.3847 30.1293Z" fill="#FEFEFE"/>
    <path d="M19.5203 23.8591C18.7783 23.8603 18.0437 24.0064 17.359 24.289C16.6743 24.5716 16.0529 24.9851 15.5306 25.5057C15.0082 26.0263 14.5952 26.6438 14.3153 27.3226C14.0354 28.0014 13.8941 28.7282 13.8996 29.4612C13.905 30.1941 14.0571 30.9187 14.3471 31.5934C14.6371 32.2681 15.0592 32.8795 15.5893 33.3925C16.1193 33.9055 16.7468 34.3099 17.4356 34.5825C18.1245 34.8552 18.8611 34.9906 19.6031 34.9811C20.3482 34.9844 21.0865 34.8417 21.7754 34.5612C22.4642 34.2806 23.0898 33.8678 23.6159 33.3467C24.142 32.8256 24.5582 32.2066 24.8404 31.5254C25.1225 30.8443 25.2649 30.1146 25.2595 29.3787C25.254 28.6428 25.1007 27.9153 24.8085 27.2383C24.5162 26.5613 24.0909 25.9484 23.5571 25.435C23.0232 24.9216 22.3915 24.5179 21.6986 24.2474C21.0057 23.9769 20.2653 23.8449 19.5203 23.8591ZM19.5262 30.1294C19.299 30.15 19.0698 30.1229 18.8539 30.0499C18.638 29.9769 18.4401 29.8597 18.2732 29.7059C18.1063 29.5521 17.9743 29.3652 17.8856 29.1575C17.797 28.9498 17.7538 28.7259 17.7589 28.5005C17.7463 28.2657 17.7836 28.0308 17.8683 27.811C17.953 27.5912 18.0833 27.3914 18.2508 27.2242C18.4184 27.0571 18.6194 26.9264 18.8411 26.8406C19.0628 26.7547 19.3002 26.7156 19.5381 26.7257C20.0021 26.7319 20.4446 26.9199 20.7683 27.2484C21.0919 27.5769 21.2703 28.0189 21.2641 28.4772C21.134 29.4638 20.5902 30.1177 19.5262 30.1294Z" fill="#FEFEFE"/>
    <path d="M36.3608 26.72C36.1228 26.713 35.8859 26.7553 35.6654 26.8441C35.4449 26.9328 35.2456 27.0662 35.0803 27.2355C34.915 27.4048 34.7873 27.6064 34.7055 27.8272C34.6237 28.0481 34.5896 28.2835 34.6053 28.5182C34.6019 28.7433 34.6469 28.9667 34.7371 29.1734C34.8274 29.3802 34.9609 29.5658 35.129 29.718C35.297 29.8702 35.4958 29.9855 35.7121 30.0565C35.9285 30.1274 36.1576 30.1523 36.3845 30.1296C37.4662 30.112 37.9686 29.429 38.1105 28.4715C37.9863 27.3972 37.4011 26.7959 36.3608 26.72Z" fill="#090B0B"/>
    <path d="M19.5384 26.7257C19.3005 26.7156 19.0631 26.7547 18.8415 26.8406C18.6198 26.9264 18.4187 27.0571 18.2512 27.2242C18.0837 27.3914 17.9534 27.5912 17.8686 27.811C17.7839 28.0308 17.7466 28.2657 17.7592 28.5005C17.7541 28.7259 17.7973 28.9498 17.886 29.1575C17.9746 29.3652 18.1067 29.5521 18.2736 29.7059C18.4404 29.8597 18.6383 29.9769 18.8543 30.0499C19.0702 30.1229 19.2993 30.15 19.5266 30.1294C20.5906 30.1177 21.1344 29.4638 21.2644 28.4772C21.1639 27.3971 20.561 26.8074 19.5384 26.7257Z" fill="#090C0C"/>
</svg>
