<svg width="190" height="28" viewBox="0 0 190 28" fill="none" xmlns="http://www.w3.org/2000/svg">
    <path d="M22.665 8.24902C22.665 8.24902 27.1606 12.8115 25.8494 20.374C30.345 18.5615 32.0933 15.5615 32.5928 12.5615C32.5928 12.5615 34.0913 6.87402 36.464 4.49902C31.7811 5.24902 31.344 3.43652 22.665 8.24902Z" fill="#5FFFBF"/>
    <path d="M23.6015 22.125C23.7264 21.5625 25.4747 15.625 22.0405 10.8125C16.2962 4.4375 7.61719 3.5 7.61719 3.5C9.30304 6.75 9.36547 9.8125 11.1762 16.0625C13.424 22.5 21.6659 22.9375 22.2903 23C22.8523 23.875 24.101 25.0625 27.0357 25.6875L27.3478 24.125C24.7879 23.625 23.9137 22.625 23.6015 22.125ZM15.4845 14.125C14.7976 11.9375 12.9869 8.3125 10.7391 6.4375C10.7391 6.4375 17.2328 8.1875 21.0415 20.375C17.545 19.25 15.984 15.75 15.4845 14.125Z" fill="#5FFFBF"/>
    <path d="M8.55412 1.625C4.93267 3.375 3.43413 7.56249 3.43413 14C3.43413 20.3125 4.87023 24.5625 8.55412 26.375L8.11704 27.9375C2.49755 26 -9.52741e-07 21.625 -9.52741e-07 14C-9.52741e-07 6.31249 2.55999 1.9375 8.11704 0L8.55412 1.625Z" fill="white"/>
    <path d="M35.5279 0.0625038C41.1474 2 43.6449 6.375 43.6449 14.0625C43.6449 21.6875 41.0849 26.0625 35.5279 28L35.0908 26.4375C38.7123 24.625 40.2108 20.375 40.2108 14.0625C40.2108 7.625 38.7747 3.4375 35.0908 1.6875L35.5279 0.0625038Z" fill="white"/>
    <path d="M62.8755 20.8125C61.0648 21.625 58.817 21.875 56.8189 21.875C51.7614 21.875 49.3263 19.6875 50.0755 14.125C50.8248 8.875 52.8228 6.75 58.1301 6.75C60.1282 6.75 62.5633 7.0625 64.2491 7.8125L63.4999 11H58.7545C56.6316 11 55.8823 11.75 55.5077 14.3125C55.1331 17.1875 55.6326 17.6875 57.6931 17.6875C58.817 17.6875 60.6277 17.6875 62.376 17.4375L62.8755 20.8125Z" fill="white"/>
    <path d="M81.3578 14.5625C80.5461 20 78.3608 21.875 72.8662 21.875C67.3716 21.875 64.9989 19.8125 65.8106 14.125C66.5598 8.625 68.7452 6.6875 74.3647 6.6875C79.9218 6.6875 82.1695 8.875 81.3578 14.5625ZM71.3052 14.5625C70.9306 17.5 71.1803 18.1875 73.0535 18.1875C74.8642 18.1875 75.4886 17.375 75.9257 14.125C76.3627 11.125 76.0506 10.4375 74.3023 10.4375C72.4291 10.4375 71.8047 11.125 71.3052 14.5625Z" fill="white"/>
    <path d="M98.153 21.5H94.032L93.9696 19.0625C92.5959 20.375 90.5979 21.875 88.3501 21.875C84.9784 21.875 83.4799 19.5 84.2291 14C85.0408 7.99999 87.4135 6.75 90.473 6.75C92.0964 6.75 93.7198 6.875 95.0935 7.1875C95.0935 6.25 95.0935 5.3125 95.2808 4.25L95.7803 1.3125H101.025L98.153 21.5ZM92.6584 10.125C90.473 10.125 89.9111 10.5625 89.474 13.9375C89.0993 16.5625 89.0994 17.5625 90.3481 17.5C91.5345 17.5 92.5335 16.875 93.5949 16L94.4067 10.125H92.6584Z" fill="white"/>
    <path d="M116.261 20.6875C114.325 21.5625 111.828 21.875 109.642 21.875C103.523 21.875 101.837 19.1875 102.399 14.125C103.086 8.125 105.771 6.6875 110.953 6.6875C116.635 6.6875 118.134 8.5625 117.697 11.875C117.322 14.5625 115.449 15.375 111.64 15.625L107.707 15.9375C107.769 17.5 108.518 17.75 110.142 17.75C111.39 17.75 114.138 17.625 115.886 17.375L116.261 20.6875ZM110.454 12.9375C111.765 12.8125 112.452 12.625 112.577 11.375C112.639 10.4375 112.265 10.25 110.829 10.25C109.08 10.25 108.456 10.8125 108.019 13.125L110.454 12.9375Z" fill="white"/>
    <path d="M128.999 2.99927C127.25 2.99927 126.501 3.37426 126.251 5.24926L125.939 7.31176H130.31L129.998 9.49926H125.627L123.691 23.1243C123.317 25.7493 121.818 27.2493 119.071 27.2493C118.197 27.2493 117.01 27.1868 115.574 26.9993L116.011 24.9368H118.197C119.945 24.9368 120.632 24.5618 120.944 22.6868L122.817 9.49926H120.32L120.569 7.49927L123.129 7.37427L123.504 4.87427C123.879 2.24927 125.377 0.749266 128.124 0.749266C129.186 0.749266 131.121 0.749268 132.245 0.936768L131.808 2.99927H128.999Z" fill="white"/>
    <path d="M142.172 9.625H141.361C139.737 9.625 138.239 10.6875 135.741 12.5L134.492 21.5H131.683L133.681 7.375H135.804L135.679 10.625C137.927 8.3125 140.112 7 142.047 7H142.797L142.172 9.625Z" fill="white"/>
    <path d="M156.034 21.0625C154.473 21.6875 151.913 21.875 150.227 21.875C145.357 21.875 143.671 19.375 144.358 14.0625C145.107 8.5625 147.043 7 152.163 7C156.783 7 157.907 8.75 157.532 11.5625C157.095 14.375 155.472 15.375 151.975 15.625L147.105 16.0625C147.105 18.875 148.416 19.5 150.664 19.5C152.225 19.5 154.285 19.3125 155.909 19.125L156.034 21.0625ZM151.975 13.5625C153.723 13.4375 154.473 12.9375 154.723 11.3125C154.972 9.375 153.973 9.3125 151.725 9.3125C148.853 9.3125 147.854 10.125 147.292 14L151.975 13.5625Z" fill="white"/>
    <path d="M163.776 14.5C161.778 13.5625 160.779 12.4375 161.029 10.375C161.341 7.68751 163.277 6.9375 167.023 7C169.021 7 171.456 7.25 173.08 7.5L172.705 9.5C170.895 9.4375 169.209 9.375 167.086 9.375C164.776 9.375 163.901 9.4375 163.776 10.625C163.652 11.6875 164.276 12 165.462 12.5L169.271 14.25C171.456 15.25 172.393 16.1875 172.081 18.3125C171.644 21.5 169.334 21.875 165.4 21.875C162.34 21.875 161.966 21.6875 159.905 21.5L160.217 19.4375C161.529 19.5625 163.339 19.5625 164.651 19.5625C168.21 19.5625 169.146 19.25 169.334 18.125C169.521 17.0625 168.834 16.9375 167.585 16.3125L163.776 14.5Z" fill="white"/>
    <path d="M180.697 6.81249C180.51 7.99999 180.26 9.3125 180.01 10.3125C182.446 8.125 184.506 7.0625 186.567 7.0625C188.939 7.0625 190.313 8.4375 189.938 11.0625L188.44 21.625H185.63L187.004 11.75C187.253 10 186.941 9.4375 185.692 9.4375C183.944 9.4375 182.258 10.625 179.823 12.5625L178.574 21.625H175.765L178.637 1.3125H181.447L180.697 6.81249Z" fill="white"/>
</svg>
