<svg width="130" height="37" viewBox="0 0 130 37" fill="none" xmlns="http://www.w3.org/2000/svg">
<g clip-path="url(#clip0_1393_7301)">
<path d="M47.5488 22.4637V13.667H50.3488V28.003H47.5488V24.8763" fill="#00141E"/>
<path d="M73.7891 19.491V15.291H76.5517V19.491H80.8871V21.7684H76.5517V31.5684C76.5199 31.8743 76.5488 32.1835 76.6369 32.4783C76.725 32.773 76.8705 33.0474 77.0651 33.2857C77.5783 33.6716 78.2182 33.8499 78.8571 33.785H80.8871V36.1184H78.3997C76.8644 36.1184 75.7117 35.7684 74.9417 35.059C74.1717 34.3497 73.7891 33.1924 73.7891 31.5684V19.491V19.491Z" fill="#00141E"/>
<path d="M89.0634 19.9765C90.0633 19.4294 91.1905 19.1572 92.33 19.1879V22.0392H91.602C88.5096 22.0392 86.9618 23.7177 86.9587 27.0745V36.1139H84.2007V19.4912H86.9587V22.1932C87.4276 21.2639 88.1595 20.493 89.0634 19.9765Z" fill="#00141E"/>
<path d="M110.614 28.8339H97.3279C97.3256 29.536 97.465 30.2314 97.7376 30.8784C98.0102 31.5255 98.4105 32.1109 98.9145 32.5997C99.4186 33.0885 100.016 33.4706 100.671 33.7232C101.326 33.9758 102.026 34.0938 102.727 34.0699C103.785 34.1074 104.828 33.8173 105.714 33.2392C106.502 32.6975 107.093 31.9148 107.399 31.0086H110.371C109.944 32.5675 108.999 33.9349 107.693 34.8866C106.25 35.9266 104.504 36.4599 102.727 36.4032C101.247 36.4277 99.7871 36.0606 98.4946 35.3392C97.2474 34.6302 96.2289 33.5794 95.5593 32.3106C94.8278 30.9125 94.4618 29.3521 94.4953 27.7746C94.4717 26.2026 94.8372 24.6491 95.5593 23.2526C96.215 21.9969 97.2219 20.9591 98.4573 20.2659C99.7738 19.5517 101.253 19.1915 102.751 19.2206C104.217 19.1899 105.665 19.5456 106.951 20.2519C108.135 20.9123 109.106 21.8965 109.751 23.0892C110.42 24.343 110.759 25.7467 110.735 27.1679C110.724 27.725 110.683 28.281 110.614 28.8339V28.8339ZM107.156 23.8779C106.703 23.1311 106.046 22.5301 105.261 22.1466C104.434 21.7471 103.525 21.5442 102.606 21.5539C101.293 21.5203 100.017 21.9913 99.0406 22.8699C98.0159 23.8486 97.4118 25.1873 97.3559 26.6032H107.851C107.882 25.6474 107.64 24.7025 107.156 23.8779V23.8779Z" fill="#00141E"/>
<path d="M129.421 28.8339H116.135C116.132 29.536 116.272 30.2314 116.544 30.8784C116.817 31.5255 117.217 32.1109 117.721 32.5997C118.225 33.0885 118.823 33.4706 119.478 33.7232C120.133 33.9758 120.832 34.0938 121.534 34.0699C122.591 34.1074 123.635 33.8173 124.521 33.2392C125.309 32.6975 125.9 31.9148 126.205 31.0086H129.159C128.736 32.572 127.795 33.9457 126.49 34.9052C125.048 35.9367 123.306 36.4633 121.534 36.4032C120.054 36.4277 118.594 36.0606 117.301 35.3392C116.059 34.6339 115.043 33.5879 114.375 32.3246C113.635 30.924 113.263 29.3584 113.293 27.7746C113.259 26.2053 113.613 24.652 114.324 23.2526C114.98 21.9969 115.987 20.9591 117.222 20.2659C118.539 19.5517 120.018 19.1915 121.515 19.2206C122.982 19.1899 124.43 19.5456 125.715 20.2519C126.899 20.9123 127.871 21.8965 128.515 23.0892C129.185 24.343 129.524 25.7467 129.5 27.1679C129.502 27.7242 129.476 28.2803 129.421 28.8339ZM125.963 23.8779C125.51 23.1311 124.853 22.5301 124.068 22.1466C123.24 21.7471 122.332 21.5442 121.413 21.5539C120.1 21.5203 118.824 21.9913 117.847 22.8699C116.823 23.8486 116.219 25.1873 116.163 26.6032H126.658C126.686 25.6476 126.445 24.7033 125.963 23.8779V23.8779Z" fill="#00141E"/>
<path d="M67.354 19.4912V21.5725C68.2018 22.3742 68.8771 23.3404 69.3386 24.412C69.8002 25.4836 70.0382 26.6381 70.0382 27.8049C70.0382 28.9717 69.8002 30.1262 69.3386 31.1978C68.8771 32.2694 68.2018 33.2356 67.354 34.0372V36.1139H70.154V19.4912H67.354Z" fill="#00141E"/>
<path d="M67.3537 22.5249V21.5915C65.7592 20.0865 63.6476 19.2512 61.455 19.2582H61.3057C62.5843 19.2449 63.844 19.5667 64.9597 20.1915C65.9521 20.741 66.7789 21.5468 67.3537 22.5249V22.5249Z" fill="#00141E"/>
<path d="M53.2793 27.7416C53.2457 26.1887 53.6002 24.6521 54.3106 23.2709C54.595 22.7372 54.9395 22.2377 55.3373 21.7822C54.5142 22.6173 53.871 23.6123 53.4476 24.7057C53.0241 25.7991 52.8293 26.9677 52.8752 28.1393C52.9212 29.311 53.2068 30.4608 53.7146 31.5177C54.2223 32.5746 54.9414 33.5161 55.8273 34.2842C55.2134 33.6868 54.7011 32.9933 54.3106 32.2309C53.6056 30.841 53.2516 29.2997 53.2793 27.7416V27.7416Z" fill="#00141E"/>
<path d="M64.9131 35.4322C63.8069 36.0551 62.5566 36.377 61.2871 36.3655H61.4551C63.6477 36.3725 65.7593 35.5372 67.3538 34.0322V33.0195C66.7718 34.0284 65.9287 34.8619 64.9131 35.4322V35.4322Z" fill="#00141E"/>
<path d="M70.0375 27.8025C70.039 26.6359 69.8016 25.4814 69.3402 24.4099C68.8787 23.3385 68.2028 22.3729 67.3542 21.5725V22.5058C66.784 21.5157 65.9569 20.6982 64.9602 20.1398C63.8446 19.515 62.5848 19.1932 61.3062 19.2064C59.0575 19.2398 56.9127 20.1587 55.3375 21.7638C54.9397 22.2193 54.5952 22.7187 54.3109 23.2524C53.6004 24.6336 53.246 26.1703 53.2795 27.7231C53.2518 29.2813 53.6059 30.8226 54.3109 32.2124C54.7013 32.9748 55.2136 33.6684 55.8275 34.2658C57.3442 35.5857 59.2773 36.3292 61.2875 36.3658C62.557 36.3772 63.8073 36.0554 64.9135 35.4325C65.9291 34.8621 66.7722 34.0287 67.3542 33.0198V34.0371C68.2032 33.236 68.8792 32.2696 69.3407 31.1973C69.8022 30.1251 70.0393 28.9698 70.0375 27.8025V27.8025ZM66.5982 31.0691C66.1329 31.967 65.4225 32.7146 64.5495 33.2251C63.6865 33.7201 62.7071 33.9762 61.7122 33.9671C60.7293 33.9748 59.7623 33.7185 58.9122 33.2251C58.0444 32.7125 57.339 31.9652 56.8775 31.0691C56.3529 30.0417 56.0931 28.8997 56.1215 27.7464C56.0965 26.6115 56.3564 25.4884 56.8775 24.4798C57.3413 23.5938 58.0468 22.8576 58.9122 22.3565C59.7763 21.8729 60.75 21.619 61.7402 21.619C62.7304 21.619 63.7041 21.8729 64.5682 22.3565C65.4373 22.8635 66.1471 23.6039 66.6169 24.4938C67.1389 25.502 67.3989 26.6254 67.3729 27.7605C67.3958 28.9093 67.1294 30.0455 66.5982 31.0644V31.0691Z" fill="#00141E"/>
<path d="M47.5487 21.4699V22.4639C46.9263 21.4698 46.0456 20.6633 45.0007 20.1306C43.9423 19.5621 42.7627 19.2564 41.5614 19.2393C40.2209 19.2694 38.9062 19.6136 37.7229 20.2442C36.5396 20.8748 35.5207 21.7741 34.748 22.8699C34.664 23.0099 34.5847 23.1499 34.5054 23.2946C33.8052 24.6705 33.4572 26.1985 33.4927 27.7419C33.4649 29.3001 33.819 30.8414 34.524 32.2313C34.7342 32.6351 34.9777 33.0206 35.252 33.3839C36.0312 34.3003 36.9942 35.0426 38.0788 35.5627C39.1633 36.0829 40.345 36.3692 41.5474 36.4033C42.8001 36.4109 44.0329 36.0891 45.122 35.4699C46.1374 34.8916 46.9762 34.0479 47.5487 33.0293V34.1773C48.4279 33.3728 49.1301 32.394 49.6105 31.3034C50.0908 30.2127 50.3389 29.034 50.3389 27.8423C50.3389 26.6505 50.0908 25.4718 49.6105 24.3811C49.1301 23.2905 48.4279 22.3118 47.5487 21.5073V21.4699ZM46.7927 31.0646C46.3274 31.9625 45.617 32.7101 44.744 33.2206C43.8769 33.718 42.8923 33.9742 41.8927 33.9626C40.9098 33.9703 39.9428 33.714 39.0927 33.2206C38.2249 32.708 37.5195 31.9606 37.058 31.0646C36.5302 30.0381 36.2671 28.8959 36.2927 27.7419C36.2677 26.607 36.5276 25.4838 37.0487 24.4753C37.5136 23.5846 38.2226 22.8448 39.0927 22.3426C39.9568 21.8591 40.9305 21.6052 41.9207 21.6052C42.9109 21.6052 43.8846 21.8591 44.7487 22.3426C45.6179 22.8496 46.3276 23.5901 46.7974 24.4799C47.3194 25.4881 47.5794 26.6115 47.5534 27.7466C47.583 28.899 47.3214 30.0402 46.7927 31.0646V31.0646Z" fill="#00141E"/>
<path d="M47.5489 22.464V21.47C45.9683 20.0213 43.9016 19.2186 41.7575 19.2207H41.5615C42.7628 19.2379 43.9424 19.5436 45.0009 20.112C46.0482 20.6499 46.9291 21.463 47.5489 22.464Z" fill="#00141E"/>
<path d="M33.4929 27.742C33.4593 26.1892 33.8138 24.6525 34.5242 23.2713C34.6035 23.1267 34.6829 22.9867 34.7669 22.8467C33.6598 24.4041 33.1045 26.2866 33.1891 28.1956C33.2736 30.1045 33.9931 31.9305 35.2335 33.384C34.9592 33.0207 34.7157 32.6351 34.5055 32.2313C33.807 30.8398 33.4593 29.2986 33.4929 27.742Z" fill="#00141E"/>
<path d="M45.122 35.4328C44.0329 36.052 42.8001 36.3739 41.5474 36.3662H41.7574C43.9014 36.3683 45.9681 35.5656 47.5487 34.1169V32.9922C46.9762 34.0108 46.1374 34.8545 45.122 35.4328V35.4328Z" fill="#00141E"/>
<path fill-rule="evenodd" clip-rule="evenodd" d="M22.5029 16.0049L17.7569 20.7555C17.4614 21.0454 17.2 21.3679 16.9775 21.7169C16.7493 22.0644 16.5584 22.4352 16.4082 22.8229C16.2591 23.2094 16.1482 23.6095 16.0769 24.0175C16.0014 24.4443 15.9639 24.8769 15.9649 25.3102V36.1135H18.5129V25.3102C18.5042 25.0356 18.5198 24.7608 18.5595 24.4889C18.6031 24.2338 18.6719 23.9837 18.7649 23.7422C18.8496 23.5229 18.9576 23.3133 19.0869 23.1169C19.2236 22.9168 19.38 22.7307 19.5535 22.5615L24.3089 17.8109L22.5029 16.0049Z" fill="#05CCC2"/>
<path fill-rule="evenodd" clip-rule="evenodd" d="M29.1294 9.75193C28.9424 9.30376 28.6697 8.89637 28.3267 8.5526L20.8601 1.08593C20.1643 0.390602 19.221 0 18.2374 0C17.2538 0 16.3104 0.390602 15.6147 1.08593L14.7794 1.95393L3.81738 12.9113L5.62338 14.7173L16.5854 3.75993L17.4347 2.90593C17.6524 2.69125 17.9457 2.5706 18.2514 2.56993C18.4034 2.57189 18.5537 2.60195 18.6947 2.6586C18.8335 2.71707 18.9601 2.80095 19.0681 2.90593L26.5347 10.3726C26.6397 10.4806 26.7236 10.6072 26.7821 10.7459C26.8373 10.8872 26.8658 11.0376 26.8661 11.1893C26.8679 11.3406 26.8395 11.4907 26.7826 11.631C26.7257 11.7712 26.6414 11.8987 26.5347 12.0059L25.6807 12.8553L25.6107 12.9253L23.8047 14.7313L25.6107 16.5373L28.3407 13.8119C28.6797 13.4642 28.9476 13.0536 29.1294 12.6033C29.3098 12.1583 29.4048 11.6834 29.4094 11.2033V11.1566C29.4054 10.6749 29.3104 10.1983 29.1294 9.75193V9.75193Z" fill="#05CCC2"/>
<path fill-rule="evenodd" clip-rule="evenodd" d="M2.65067 18.7022C2.5914 18.5636 2.56122 18.4143 2.562 18.2635V18.1655C2.57158 18.0652 2.59352 17.9665 2.62733 17.8715V17.8715L0.760667 16.0049C0.284185 16.6243 0.017714 17.3796 0 18.1609V18.1609V18.2589C0.0024005 18.7392 0.0974722 19.2146 0.28 19.6589C0.462526 20.1069 0.733993 20.5134 1.078 20.8535L9.12334 28.9362V25.3009L2.90267 19.0755C2.79484 18.969 2.70919 18.8421 2.65067 18.7022V18.7022Z" fill="#05CCC2"/>
<path fill-rule="evenodd" clip-rule="evenodd" d="M27.426 14.7174L27.496 14.7874L28.35 15.6414C28.694 15.9844 28.9667 16.392 29.1527 16.8407C29.3245 17.2622 29.4193 17.7111 29.4327 18.1661V18.2641C29.4303 18.7444 29.3352 19.2198 29.1527 19.6641C28.9701 20.1121 28.6987 20.5185 28.3547 20.8587L20.2953 28.9367V25.3014L26.5207 19.0761C26.6285 18.9695 26.7141 18.8426 26.7727 18.7027C26.8298 18.5635 26.8599 18.4146 26.8613 18.2641V18.1661C26.8528 18.0471 26.8244 17.9303 26.7773 17.8207C26.72 17.6814 26.636 17.5545 26.53 17.4474L25.676 16.5934L23.73 14.6474L15.9833 6.90073L17.7893 5.09473L25.536 12.8414L25.606 12.9114L27.426 14.7174ZM0.032667 11.1521V11.2034C0.0349115 12.1791 0.424308 13.114 1.11533 13.8027L9.856 22.5621C10.1897 22.8997 10.4516 23.3013 10.626 23.7427C10.7168 23.9849 10.7855 24.2348 10.8313 24.4894C10.8749 24.761 10.8967 25.0357 10.8967 25.3107V36.1141H13.4447V25.3107C13.4472 24.8775 13.4113 24.4449 13.3373 24.0181C13.2645 23.6099 13.1519 23.2097 13.0013 22.8234C12.703 22.0478 12.2451 21.3435 11.6573 20.7561L5.69333 14.7874L5.62333 14.7174L3.81733 12.9114L3.74733 12.8414L2.898 11.9921C2.68312 11.7746 2.56262 11.4811 2.56262 11.1754C2.56262 10.8697 2.68312 10.5762 2.898 10.3587L10.3647 2.89206C10.471 2.78512 10.5981 2.70097 10.738 2.64473C10.8777 2.58633 11.0276 2.55626 11.179 2.55626C11.3304 2.55626 11.4803 2.58633 11.62 2.64473C11.7599 2.70097 11.887 2.78512 11.9933 2.89206L12.8473 3.74606L12.9173 3.81606L14.784 1.9494L14.714 2.0194L14.644 1.9494L13.79 1.0954C13.447 0.751442 13.0394 0.478661 12.5907 0.292729C11.6804 -0.0819512 10.659 -0.0819512 9.74867 0.292729C9.29991 0.478661 8.89233 0.751442 8.54933 1.0954L1.08267 8.56206C0.391642 9.25084 0.00224455 10.1857 0 11.1614L0.032667 11.1521Z" fill="#00141E"/>
<path fill-rule="evenodd" clip-rule="evenodd" d="M27.4427 14.6227L27.5127 14.6927L28.3667 15.5467C28.7106 15.8897 28.9834 16.2972 29.1693 16.746C29.3411 17.1675 29.436 17.6164 29.4493 18.0713V18.1693C29.4469 18.6497 29.3519 19.125 29.1693 19.5693C28.9868 20.0174 28.7153 20.4238 28.3713 20.764L20.312 28.842V25.2067L26.5373 18.9813C26.6452 18.8747 26.7308 18.7479 26.7893 18.608C26.8465 18.4687 26.8766 18.3199 26.878 18.1693V18.0713C26.8695 17.9523 26.8411 17.8356 26.794 17.726C26.7367 17.5866 26.6526 17.4598 26.5467 17.3527L25.6927 16.4987L23.7467 14.5527L16 6.806L17.806 5L25.5527 12.7467L25.6227 12.8167L27.4427 14.6227Z" fill="#00141E"/>
</g>
<defs>
<clipPath id="clip0_1393_7301">
<rect width="129.501" height="36.4079" fill="white"/>
</clipPath>
</defs>
</svg>
