<svg width="306" height="336" viewBox="0 0 306 336" fill="none" xmlns="http://www.w3.org/2000/svg">
<circle cx="109.396" cy="105.302" r="90.7649" fill="#CDECF6"/>
<circle cx="107.303" cy="101.395" r="99.9413" fill="#E2F5FC"/>
<circle cx="104.761" cy="103.757" r="99.3961" fill="#B5D2F3"/>
<path d="M123.275 223.243C123.256 223.32 123.275 223.196 123.275 223.338C123.251 224.333 123.204 225.75 123.18 226.745C123.038 225.987 122.797 224.824 122.631 224.042C122.749 222.597 124.032 223.337 123.37 223.338L123.275 223.243Z" fill="#FE733E"/>
<path d="M61.0414 142.143C61.0671 142.168 61.1188 142.168 61.1445 142.194C61.1188 142.22 61.0672 142.246 61.0414 142.271C61.0671 142.246 61.0414 142.194 61.0414 142.143V142.143Z" fill="#FEFEFE"/>
<path d="M100.188 42.7158V42.7408C100.162 42.7408 100.137 42.7408 100.112 42.7408C100.137 42.7408 100.162 42.7158 100.188 42.7158Z" fill="#FEFEFE"/>
<path d="M151.791 189.056C152.264 188.89 152.714 188.677 153.164 188.511C159.655 185.858 165.269 181.784 170.48 177.26C189.288 161.01 201.701 140.662 204.709 115.98C208.12 87.9334 201.843 62.0428 183.129 39.8C166.051 19.5233 144.282 7.70312 118.296 4.97904C89.4208 1.9707 63.4828 10.0482 41.6427 29.9933C23.4268 46.6221 12.7911 67.2304 10.067 91.4629C7.74559 112.095 11.4646 132.04 22.0767 150.161C31.7176 166.624 44.5563 179.984 61.9194 188.44C62.3931 188.677 62.8669 188.914 63.3406 189.127C64.0039 190.928 64.5961 192.728 63.4591 194.575C63.0564 194.22 62.7011 193.77 62.2273 193.51C36.005 179.629 17.8129 158.997 9.30899 130.287C8.57467 127.847 7.43765 126.639 4.71354 126.923C1.01827 127.302 0.0233822 124.839 0.0233822 121.759C3.91641e-05 109.939 6.93416e-05 98.1428 6.93416e-05 86.3227C6.93416e-05 83.7881 0.615925 80.9929 3.24526 80.7087C8.07757 80.1401 8.66976 76.6107 9.64096 73.176C15.326 53.1835 26.2697 36.5548 42.5195 23.7871C75.9191 -2.4352 112.588 -7.17273 151.057 10.5457C179.648 23.6924 197.863 46.5036 206.107 77.0371C206.628 78.9321 206.391 81.1824 209.613 80.5192C214.208 79.5716 215.937 82.2721 215.961 86.3463C216.032 98.1665 215.984 109.963 215.984 121.783C215.984 125.715 213.995 127.8 210.205 126.876C206.723 126.023 205.894 127.752 205.183 130.405C202.103 141.728 196.963 152.08 189.999 161.531C179.813 175.341 167.401 186.427 151.625 193.486C151.672 192.017 151.72 190.525 151.791 189.056H151.791Z" fill="#B5D2F3"/>
<path d="M66.9262 242.443C66.6183 239.008 66.7841 235.526 66.3577 232.115C65.4102 224.606 66.3104 216.931 64.3443 209.517C63.3731 205.679 66.4762 201.179 62.4966 197.815C62.8283 196.725 63.1599 195.636 63.4915 194.546C63.4915 192.433 63.3731 190.889 63.3731 189.098C63.3731 182.257 62.4576 176.261 62.1887 169.413C61.8334 160.365 61.4544 151.316 61.0991 142.244C61.1227 142.22 61.1701 142.196 61.1938 142.173C80.5467 151.056 98.7862 138.619 101.889 123.696C103.926 113.89 102.837 104.628 95.1857 97.1423C93.9066 95.8869 92.8169 94.4419 91.6325 93.068C88.5057 74.3311 90.685 57.1338 106.698 43.7265C104.305 42.3526 102.15 43.1343 100.207 42.779V42.7557C119.845 37.8287 143.674 51.2596 151.562 71.7732C153.931 77.932 155.21 84.2803 154.808 90.8891C135.336 81.8641 117.878 92.642 113.07 109.058C108.072 126.136 121.384 144.21 139.079 144.471C144.243 144.542 149.146 143.689 154.026 142.244C153.671 151.672 153.292 161.099 152.936 170.527C152.707 176.624 151.823 182.803 151.823 189.098C151.776 190.567 151.728 192.036 151.681 193.504C151.728 194.475 151.776 195.447 151.823 196.442C150.378 202.363 150.07 208.451 149.62 214.515C149.667 214.349 149.691 214.207 149.715 214.042C149.691 214.207 149.644 214.349 149.62 214.515C149.146 224.819 148.862 235.147 148.128 245.451C147.82 249.715 149.359 251.847 153.292 252.937C157.934 254.24 162.506 255.803 167.102 257.272C160.943 258.124 154.879 258.219 148.815 258.077C142.253 257.935 139.269 255.021 138.629 248.507C138.226 244.362 137.871 240.216 137.492 236.071C137.066 228.562 136.639 221.029 136.213 213.52C135.905 213.52 135.597 213.52 135.289 213.52C135.289 220.674 135.289 227.828 135.289 234.958C135.171 238.203 135.123 241.472 134.91 244.717C133.962 259.854 133.512 259.759 148.601 262.814C148.957 262.886 149.265 263.099 149.596 263.241C148.696 263.833 147.796 264.425 146.896 265.041C146.612 265.112 146.375 265.231 146.233 265.491C142.632 265.515 139.008 265.823 135.455 265.491C128.988 264.875 125.932 261.417 125.459 254.998C125.174 250.876 124.748 246.754 124.393 242.633C123.872 236.587 123.655 232.518 123.113 226.406C123.137 225.412 123.161 224.44 123.185 223.446C123.185 223.303 123.232 223.209 123.232 223.232C123.919 223.398 122.782 222.664 122.663 224.109C122.545 223.469 122.403 222.83 122.284 222.19C122.284 230.457 122.284 238.724 122.284 247.015C122.213 249.928 122.119 252.818 122.071 255.732C121.953 266.273 122.616 267.22 132.66 270.229C135.431 271.058 138.321 271.555 141.069 272.479C143.059 273.166 145.593 272.787 147.464 275.132C139.292 274.824 131.641 275.748 124.037 274.516C116.173 273.237 113.046 270.063 111.435 262.388C110.251 256.75 109.754 250.947 107.598 245.238C107.29 245.854 107.053 246.138 106.982 246.47C105.893 251.8 104.803 257.153 103.761 262.483C102.292 269.944 99.26 273.119 91.6799 274.445C83.8393 275.795 75.9039 274.872 67.779 275.061C68.9397 273.071 70.7637 273.403 72.2323 272.977C77.2778 271.508 82.418 270.252 87.3688 268.547C90.9693 267.291 93.5512 264.994 93.5039 260.564C93.3854 248.436 93.4565 236.308 93.4565 224.18C92.959 224.18 92.4616 224.18 91.9878 224.18C91.4667 231.784 90.8508 239.364 90.4481 246.967C89.5243 264.544 87.4398 266.462 69.7925 265.491C68.7976 263.833 66.3577 265.136 65.4339 263.359C69.674 263.336 73.3693 261.298 77.2541 259.996C79.4334 259.261 80.6651 257.295 80.6177 254.879C80.4283 242.419 80.902 229.912 79.2202 217.5C78.2016 227.922 77.3962 238.369 76.5908 248.791C76.2118 253.671 74.0089 257.485 68.8923 257.816C61.9755 258.29 55.035 257.935 48.0945 257.935C51.7661 256.087 55.5325 254.998 59.2751 253.813C67.7553 251.089 67.7079 251.065 66.9262 242.443V242.443ZM120.271 64.7138C120.342 68.1959 123.042 70.9437 126.572 71.0148C130.291 71.0858 133.086 68.954 133.157 64.1217C132.754 60.6159 130.788 58.2234 126.619 58.1287C122.19 58.0576 120.2 61.0423 120.271 64.7138ZM91.7983 168.324C91.7747 177.917 99.1178 186.279 107.503 186.255C115.415 186.232 123.492 176.899 123.208 168.087C123.635 165.481 123.252 163.297 123.844 159.65C118.183 163.511 114.254 167.021 107.882 167.163C101.368 167.282 96.2516 163.942 90.9219 160.033C91.195 162.772 92.6511 165.6 91.7983 168.324Z" fill="#FE733E"/>
<path d="M151.769 196.39C155.275 206.221 164.608 205.984 172.543 208.447C166.574 209.987 160.51 211.763 154.54 210.745C150.987 210.129 150.3 211.408 149.779 213.516C149.732 213.682 149.708 213.848 149.661 214.014C149.637 214.156 149.59 214.322 149.566 214.488C150.016 208.4 150.324 202.336 151.769 196.39V196.39Z" fill="#FE684B"/>
<path d="M64.3494 209.53C56.7693 212.965 49.6157 209.506 42.2961 208.511C49.4498 205.479 58.7117 207.043 62.4781 197.828C66.4813 201.192 63.3782 205.692 64.3494 209.53V209.53Z" fill="#FE6446"/>
<path d="M158.42 265.42C153.327 265.42 147.266 265.543 143.713 265.543C143.335 265.543 146.647 265.135 146.86 264.969C147.76 264.377 146.598 263.32 147.498 262.704C150.175 262.562 154.748 263.619 158.42 265.42Z" fill="#FE733E"/>
<path d="M72.168 265.545C68.2121 265.545 61.8464 265.409 57.8905 265.409C60.3067 264.011 63.2689 262.917 66.0167 263.367C66.9405 265.168 71.1968 263.887 72.168 265.545Z" fill="#FE733E"/>
<path d="M61.8928 188.421C44.5297 179.989 31.7147 166.629 22.0501 150.142C11.438 132.021 7.71905 112.076 10.0405 91.444C12.7645 67.1878 23.3766 46.5794 41.6162 29.9743C63.4562 10.053 89.3943 1.95177 118.27 4.98379C144.231 7.68419 166.024 19.5281 183.103 39.8047C201.84 62.0475 208.093 87.9382 204.682 115.984C201.674 140.691 189.262 161.015 170.454 177.265C165.219 181.789 159.605 185.887 153.138 188.516C152.688 188.706 152.238 188.895 151.764 189.061C151.456 182.831 152.19 176.672 152.877 170.49C153.351 170.158 153.825 169.827 154.299 169.471C159.107 165.989 163.229 161.702 167.374 157.485C168.63 156.206 170.193 155.117 170.193 153.032C172.988 155.045 175.002 153.648 176.636 151.421C185.732 139.009 191.228 125.246 191.962 109.755C192.625 96.0631 191.394 82.7506 185.637 69.9355C178.318 53.6621 167.066 41.226 151.953 31.9878C149.395 30.4244 147.927 31.8221 146.15 32.9827C144.421 32.817 142.881 32.2247 141.768 30.8034C141.839 30.6377 141.91 30.4718 141.981 30.306C143.497 27.1081 143.568 23.4839 139.92 22.6312C136.249 21.7547 134.164 24.7394 134.14 28.6005C106.734 19.5991 81.2457 23.2471 58.2449 40.7997C41.0476 53.9226 31.1936 71.5226 28.1852 92.9837C24.3004 120.58 33.6334 143.462 52.8678 162.815C55.1418 165.089 57.7001 167.15 60.59 168.69C61.0874 168.95 61.6536 169.118 62.151 169.355C63.3354 175.869 63.4065 182.454 63.3354 189.039C62.909 188.826 62.3903 188.658 61.8928 188.421Z" fill="#E2F5FC"/>
<path d="M52.929 162.874C33.7183 143.522 24.3853 120.639 28.2464 93.043C31.2547 71.5583 41.1088 53.9583 58.3061 40.859C81.3069 23.3064 106.819 19.6822 134.202 28.6599C134.249 28.6832 134.296 28.7309 134.344 28.7545C136.499 30.1284 138.181 33.0894 141.284 31.2417C141.474 31.1232 141.639 31.0285 141.829 30.8864C142.942 32.3077 144.458 32.8999 146.211 33.0657C146.282 33.3499 146.377 33.6105 146.472 33.8948C148.438 39.414 154.336 40.8589 158.292 44.1752C169.022 53.1528 176.982 63.9071 181.672 76.9353C189.204 97.9226 187.665 118.484 177.574 138.334C175.939 141.555 173.926 144.611 171.77 147.525C170.491 149.278 170.088 151.03 170.254 153.044C170.254 153.068 170.254 153.091 170.254 153.115C170.254 155.176 168.691 156.289 167.435 157.568C163.266 161.785 159.168 166.072 154.36 169.554C153.886 169.886 153.412 170.241 152.939 170.573C153.294 161.145 153.673 151.717 154.028 142.29C154.052 142.29 154.052 142.266 154.076 142.266C162.271 136.889 168.288 130.02 169.33 119.786C170.633 107.161 165.327 97.828 154.999 91.0296C154.952 91.006 154.905 90.9585 154.857 90.9349C155.26 84.3023 153.981 77.954 151.612 71.8189C143.724 51.329 119.894 37.8744 100.257 42.8014C100.233 42.8014 100.21 42.8014 100.186 42.8248C87.1577 44.933 76.4509 50.8786 68.7761 61.7986C62.641 70.5394 59.4668 80.1803 60.1301 90.9345C52.7395 96.5485 46.7702 103.134 45.799 112.869C44.4962 125.969 50.0865 135.538 61.1013 142.218C61.1013 142.266 61.1013 142.289 61.1013 142.337C61.4566 151.386 61.8356 160.434 62.1909 169.507C61.6698 169.27 61.1723 169.033 60.6986 168.772C57.7613 167.233 55.203 165.172 52.929 162.874V162.874Z" fill="#CDECF6"/>
<path d="M84.8313 89.8431C76.7064 85.8399 68.8184 87.9955 60.9778 90.5774C60.6935 90.6722 60.3856 90.7669 60.1013 90.8617C59.4381 80.0838 62.6122 70.4429 68.7474 61.7258C76.4222 50.8058 87.129 44.8602 100.157 42.752C100.181 42.752 100.205 42.752 100.228 42.752C102.171 43.131 104.326 42.3256 106.719 43.6995C90.7059 57.1067 88.5029 74.304 91.6534 93.041C91.1559 92.8041 90.6822 92.5909 90.1847 92.354C88.3608 91.5249 86.5842 90.7196 84.8313 89.8431V89.8431Z" fill="#FE6B3C"/>
<path d="M45.7684 112.813C46.7396 103.077 52.7089 96.4921 60.0994 90.8781C60.3837 90.7834 60.6916 90.6886 60.9759 90.5939C68.8402 88.0119 76.7045 85.8563 84.8294 89.8595C86.5823 90.736 88.3826 91.5651 90.1591 92.3941C90.6566 92.631 91.1303 92.8442 91.6278 93.0811C92.8122 94.4313 93.9018 95.8999 95.1809 97.1554C102.856 104.641 103.922 113.903 101.885 123.709C98.7815 138.656 80.5419 151.092 61.1654 142.233C61.1418 142.209 61.0943 142.209 61.0706 142.186C50.0559 135.482 44.4419 125.889 45.7684 112.813V112.813ZM74.7385 138.988C87.3166 138.893 97.1233 128.897 97.0049 116.271C96.8865 103.835 86.7244 93.9812 74.1936 94.076C61.5918 94.1707 51.9509 104.096 52.0456 116.84C52.1403 129.489 61.9945 139.106 74.7385 138.988Z" fill="#FE6142"/>
<path d="M154.986 90.9349C165.314 97.7332 170.62 107.066 169.318 119.692C168.275 129.925 162.259 136.794 154.063 142.171C154.039 142.171 154.039 142.195 154.015 142.195C149.136 143.64 144.256 144.493 139.068 144.422C121.397 144.161 108.061 126.111 113.059 109.009C117.868 92.5929 135.349 81.815 154.797 90.84C154.892 90.8636 154.939 90.9112 154.986 90.9349ZM140.869 138.974C153.778 139.021 163.775 129.119 163.727 116.281C163.704 103.679 153.873 93.9195 141.2 93.8485C128.385 93.7774 118.152 103.868 118.199 116.47C118.247 128.859 128.409 138.926 140.869 138.974Z" fill="#FE6143"/>
<path d="M120.223 170.157C121.099 169.281 121.739 168.096 123.208 168.073C123.492 176.885 115.438 186.218 107.503 186.241C99.0934 186.265 91.774 177.903 91.7976 168.31C93.3713 170.157 96.9853 173.308 100.633 174.303C107.905 176.292 114.585 175.795 120.223 170.157Z" fill="#070909"/>
<path d="M90.9287 160.01C96.2585 163.918 101.351 167.258 107.889 167.14C114.285 167.021 118.37 163.131 124.031 159.27C123.747 162.96 123.641 165.434 123.215 168.064C122.422 168.354 121.665 169.112 120.23 170.148C114.616 175.786 107.913 176.283 100.641 174.294C96.9928 173.299 94.0321 170.815 91.8052 168.301C91.8052 167.787 90.9287 162.96 90.9287 160.01Z" fill="#FDFCFB"/>
<path d="M126.599 58.1306C130.792 58.2017 132.758 60.5941 133.137 64.1236C133.066 68.9559 130.271 71.0641 126.552 71.0167C123.022 70.9457 120.322 68.1979 120.251 64.7158C120.18 61.0205 122.169 58.0359 126.599 58.1306Z" fill="#FEA777"/>
<path d="M170.252 152.97C170.087 150.956 170.489 149.204 171.769 147.451C173.9 144.537 175.938 141.481 177.572 138.26C187.663 118.41 189.226 97.8487 181.67 76.8613C176.98 63.8331 169.021 53.0789 158.29 44.1012C154.334 40.785 148.436 39.3637 146.47 33.8208C146.375 33.5602 146.281 33.276 146.209 32.9917C147.986 31.831 149.455 30.4334 152.013 31.9968C167.126 41.235 178.377 53.6711 185.697 69.9445C191.453 82.7596 192.685 96.0721 192.022 109.764C191.263 125.232 185.792 139.018 176.696 151.43C175.061 153.657 173.024 155.054 170.252 153.041C170.252 153.017 170.252 152.994 170.252 152.97V152.97Z" fill="#FDFEFE"/>
<path d="M134.38 28.7184C134.333 28.695 134.285 28.6473 134.238 28.6237C134.285 24.7626 136.346 21.7779 140.018 22.6544C143.666 23.5308 143.594 27.1551 142.078 30.3292C142.007 30.4949 141.936 30.6608 141.865 30.8266C141.676 30.9688 141.486 31.0872 141.32 31.182C138.217 33.0533 136.536 30.0686 134.38 28.7184L134.38 28.7184Z" fill="#FBFDFE"/>
<circle cx="141.103" cy="116.296" r="29.4372" fill="#FE6143"/>
<path d="M52.024 116.87C51.9294 104.15 61.5702 94.2246 74.1721 94.1061C86.7265 94.0114 96.8649 103.865 96.9833 116.302C97.1017 128.903 87.295 138.9 74.7169 139.018C61.9729 139.113 52.1188 129.496 52.024 116.87ZM73.6036 119.334C77.8673 119.405 80.3545 116.988 80.7336 112.796C81.0889 108.887 77.5831 105.239 73.6983 105.5C69.5293 105.808 67.1842 108.248 66.6867 112.606C67.2552 116.491 69.245 119.263 73.6036 119.334Z" fill="#FEFEFE"/>
<path d="M141.178 93.891C153.851 93.9621 163.658 103.721 163.705 116.323C163.729 129.162 153.756 139.063 140.846 139.016C128.387 138.969 118.225 128.901 118.177 116.536C118.154 103.911 128.387 93.8199 141.178 93.891V93.891ZM141.154 119.332C145.371 119.379 147.905 116.963 148.237 112.723C148.545 108.814 145.016 105.19 141.107 105.522C136.985 105.877 134.569 108.269 134.19 112.628C134.711 116.631 136.891 119.284 141.154 119.332V119.332Z" fill="#FEFEFE"/>
<path d="M73.6899 105.497C77.5747 105.213 81.0804 108.861 80.7251 112.793C80.3461 117.009 77.8589 119.402 73.5951 119.331C69.2603 119.26 67.2468 116.488 66.6783 112.603C67.1758 108.245 69.5208 105.805 73.6899 105.497Z" fill="#090B0B"/>
<path d="M141.101 105.493C145.01 105.162 148.539 108.786 148.231 112.694C147.9 116.934 145.365 119.351 141.149 119.303C136.885 119.256 134.706 116.603 134.184 112.6C134.587 108.217 137.003 105.825 141.101 105.493Z" fill="#090C0C"/>
<path d="M112.136 301.832C112.137 301.833 112.139 301.833 112.141 301.833C125.501 300.5 131.662 299.455 134.666 298.701C144.715 296.178 154.564 292.91 163.946 288.485C179.92 281.18 194.348 271.088 207.634 259.7C234.819 235.642 253.635 204.214 268.189 171.204C256.079 178.597 243.632 185.92 231.253 192.905C227.718 194.65 218.534 187.817 216.084 189.433C233.709 177.526 252.213 166.508 270.915 156.236C272.139 155.429 285.955 158.622 286.084 159.707C290.631 183.939 295.378 208.916 291.379 233.508C291.379 233.508 284.875 232.522 284.607 232.115C282.392 215.422 280.586 198.463 277.553 182.308C260.113 222.491 232.115 259.088 193.954 281.596C170.214 295.773 132.897 312.454 105.296 300.778C104.345 300.23 108.145 301.872 112.136 301.832V301.832Z" fill="url(#paint0_linear_2853_33584)"/>
<defs>
<linearGradient id="paint0_linear_2853_33584" x1="156.959" y1="312.329" x2="192.507" y2="139.471" gradientUnits="userSpaceOnUse">
<stop offset="0.02" stop-color="#006578"/>
<stop offset="0.11" stop-color="#00586C"/>
<stop offset="0.32" stop-color="#003C55"/>
<stop offset="0.51" stop-color="#002B46"/>
<stop offset="0.65" stop-color="#002541"/>
</linearGradient>
</defs>
</svg>
