<?xml version="1.0" ?><svg id="Layer_1" style="enable-background:new 0 0 256 256;" version="1.1" viewBox="0 0 256 256" xml:space="preserve" xmlns="http://www.w3.org/2000/svg" xmlns:xlink="http://www.w3.org/1999/xlink"><g><path d="M80.9,95.4h32.6l24.7,24.7l24.7-24.7h32.6c2.9,0,5.2-2.3,5.2-5.2V12.2c0-2.9-2.3-5.2-5.2-5.2H80.9c-2.9,0-5.2,2.3-5.2,5.2   v77.9C75.7,93,78,95.4,80.9,95.4z M85.3,16.6H191v69.1h-32.1l-20.7,20.7l-20.7-20.7H85.3V16.6z"/><path d="M216.8,67.6c-1.2-2.4-4-3.4-6.4-2.2c-2.4,1.2-3.4,4-2.2,6.4c4.9,10.1,7.6,21.1,7.8,32.5c0.2,11.1-1.9,21.8-6.3,32   c-9.2,21.4-13.9,43.3-13.9,65.1v17.4c0,0.8-0.6,1.5-1.4,1.7L100.8,239c-0.3-3.7-0.5-8.2-0.8-12.5c-1.1-16.9-1.2-17.1-1.4-17.9   l-1-3.5H93c-4.3,0-8.5,0-12.7,0c-0.9,0-1.9,0-2.9,0.1c-4.6,0.1-9.5,0.3-12.1-2.2c-1.4-1.2-2.2-3.5-2.6-6.6c0-0.2-0.1-0.5-6.7-44.4   l-0.2-1.3l-0.9-1l-1.2-1.2c-1-0.8-2.1-1.2-3-1.5l-0.9-0.4c-1.5-0.7-3.1-1.3-4.6-2c-1.7-0.8-3.2-1.5-4.5-2.4   c-0.2-0.1-0.4-0.3-0.6-0.4c0.3-0.7,0.8-1.5,1.6-2.5c0.8-0.9,5.8-5.8,8.6-8.4l3.3-3.1c3.9-3.9,7.6-8.3,8.5-13.9l0.1-0.4l0-0.4   c0-4.2,0-7,0-7.4c0-10.4,2-20.5,6.1-30c1-2.4-0.1-5.3-2.5-6.3c-2.5-1-5.3,0.1-6.3,2.5c-4.5,10.7-6.8,22-6.8,33.7c0,0.4,0,3,0,7   c-0.6,3-3.3,5.8-5.7,8.2l-3.2,3.1c-5.8,5.6-8.5,8.2-9.4,9.3c-1.1,1.3-2.6,3.4-3.4,5.9c-1.5,4.5,0.1,8.3,4.8,11.1   c1.7,1,3.5,2,5.5,2.9c1.6,0.7,3.2,1.4,4.9,2.2c0.2,0.1,0.4,0.2,0.6,0.2c2,13.1,6.2,40.7,6.3,41.7c0.7,5.7,2.5,9.8,5.7,12.7   c5.5,5.1,12.9,4.9,18.9,4.7c0.9,0,1.8-0.1,2.6-0.1c3.1,0,6.2,0,9.2,0c0.2,3.4,0.6,8.2,0.8,12.4c0.3,5.1,0.7,10.4,1,14.5   c0.1,2.2,1.2,4.3,3,5.6c1.4,1.1,3.1,1.7,4.8,1.7c0.5,0,1,0,1.5-0.1l95.7-19c5.2-1.1,9.1-5.7,9.1-11.1v-17.4   c0-20.5,4.4-41.1,13.1-61.3c4.9-11.4,7.3-23.5,7.1-35.9C225.3,91.2,222.4,79,216.8,67.6z"/><path d="M136.8,69.8c-2.3,0-4.2,1.9-4.2,4.2c0,2.3,1.9,4.2,4.2,4.2c1.2,0,2.3-0.5,3.1-1.3c0.8-0.8,1.2-1.9,1.2-3.1   C141,71.6,139.1,69.8,136.8,69.8z"/><path d="M125.3,40c2.2,1,4.8-0.1,5.8-2.3c1.3-3,3.8-4.7,7-4.7c2.7,0,5.2,1.3,6.2,3.3c0.9,1.8,0.6,3.8-0.9,5.9   c-1.1,1.6-2.7,2.7-4.1,3.8c-1.9,1.4-4,3-5.2,5.6c-1,2.2-1.4,4.9-1.5,8.9c0,2.4,1.9,4.4,4.4,4.4c0,0,0,0,0,0c2.4,0,4.4-2,4.4-4.4   c0-3.2,0.4-4.6,0.7-5.3c0.2-0.5,1.6-1.5,2.4-2.1c1.7-1.3,4-3,6-5.7c3.5-4.8,4.1-10.3,1.6-15.1c-2.5-4.9-8.1-8.1-14.1-8.1   c-6.7,0-12.4,3.9-15.1,10.1C122,36.5,123.1,39.1,125.3,40z"/></g></svg>