<svg id="Bold" enable-background="new 0 0 32 32" height="512" viewBox="0 0 32 32" width="512" xmlns="http://www.w3.org/2000/svg"><path d="m26 32h-20c-3.314 0-6-2.686-6-6v-20c0-3.314 2.686-6 6-6h20c3.314 0 6 2.686 6 6v20c0 3.314-2.686 6-6 6z" fill="#ffe6e2"/><path d="m15.157 11.882c-.606.243-1.258.421-1.922.421-1.897-1.107-4.471.046-4.471 2.472h.001c0 .904.571 2.143 1.463 2.447v.036c-.663.296-.846 1.807.035 2.35v.036c-.963.322-1.597.939-1.597 2.007 0 1.839 1.72 2.35 3.226 2.35 1.834 0 3.198-.668 3.198-2.715 0-2.518-3.561-1.589-3.561-2.957 0-.482.254-.668.694-.76 1.463-.275 2.38-1.429 2.38-2.936 0-.261-.053-.507-.141-.75.236-.053.466-.118.694-.197v-1.804zm-3.3 8.744c.599-.001 1.452.107 1.452.892 0 .779-.687.939-1.329.939-.61 0-1.527-.097-1.527-.9.004-.795.78-.931 1.404-.931zm-.113-4.625c-.775-.001-1.103-.465-1.103-1.208 0-1.761 2.15-1.743 2.15-.018 0 .726-.282 1.226-1.047 1.226z" fill="#fc573b"/><path d="m23.333 19.518v-1.75c-.282.197-.687.296-1.033.296-.652 0-.769-.643-.769-1.172v-3.253c1.118 0 1.798.036 1.798.036v-1.697h-1.798c0-.489-.018-.978.053-1.471h-1.999c.063.364.053.675.053 1.471h-.846v1.697c.589-.093.599-.036.846-.036v.036h-.017v3.132c0 1.554.222 3.061 2.108 3.061.529 0 1.136-.089 1.604-.35z" fill="#fc573b"/><path d="m16.994 8c-.705 0-1.216.621-1.216 1.311 0 .679.518 1.293 1.216 1.293.68 0 1.191-.625 1.191-1.293.001-.668-.493-1.311-1.191-1.311z" fill="#fd907e"/><path d="m16.011 11.971c.063.528.056 7.133 0 7.779h1.957c-.056-.642-.063-7.258 0-7.779z" fill="#fc573b"/></svg>