<?xml version="1.0" encoding="iso-8859-1"?>
<!-- Generator: Adobe Illustrator 19.0.0, SVG Export Plug-In . SVG Version: 6.00 Build 0)  -->
<svg version="1.1" id="Capa_1" xmlns="http://www.w3.org/2000/svg" xmlns:xlink="http://www.w3.org/1999/xlink" x="0px" y="0px"
	 viewBox="0 0 505.231 505.231" style="enable-background:new 0 0 505.231 505.231;" xml:space="preserve">
<g>
	<g>
		<g>
			<rect x="72.758" y="254.33" style="fill:#010002;" width="44.673" height="44.695"/>
			<rect x="72.758" y="324.996" style="fill:#010002;" width="44.673" height="44.652"/>
			<rect x="147.63" y="183.621" style="fill:#010002;" width="44.673" height="44.673"/>
			<rect x="147.63" y="254.33" style="fill:#010002;" width="44.673" height="44.695"/>
			<rect x="147.63" y="324.996" style="fill:#010002;" width="44.673" height="44.652"/>
			<path style="fill:#010002;" d="M415.842,190.049V59.719c0-17.3-14.129-31.429-31.429-31.429H31.429
				C14.129,28.29,0,42.419,0,59.719v352.963c0,17.3,14.129,31.429,31.429,31.429h230.398c25.626,20.514,58.09,32.831,93.466,32.831
				c82.789,0,149.939-67.085,149.939-149.874C505.209,265.871,468.431,213.324,415.842,190.049z M136.219,59.158h143.273v37.037
				H136.219V59.158z M38.612,131.571h338.575v47.413c-7.162-1.057-14.452-1.79-21.916-1.79c-32.982,0-63.375,10.785-88.138,28.84
				V183.6h-44.652v44.673h20.298c-23.189,26.381-37.339,60.894-37.339,98.794c0,27.05,7.269,52.352,19.78,74.247H38.612V131.571z
				 M341.53,204.976c0-7.614,6.191-13.719,13.741-13.719c7.636,0,13.741,6.105,13.762,13.719c0,7.593-6.126,13.741-13.762,13.741
				C347.743,218.717,341.53,212.569,341.53,204.976z M246.942,327.089c0,7.614-6.126,13.784-13.762,13.784
				c-7.614,0-13.741-6.169-13.741-13.784c0-7.615,6.126-13.719,13.741-13.719C240.795,313.37,246.921,319.474,246.942,327.089z
				 M355.271,462.941c-7.55,0-13.741-6.126-13.741-13.697c0-7.636,6.191-13.805,13.741-13.805c7.636,0,13.741,6.148,13.762,13.805
				C369.033,456.794,362.907,462.941,355.271,462.941z M438.491,265.116l-57.529,57.443c0.388,1.769,1.079,3.408,1.079,5.285
				c0,14.905-12.101,27.007-27.007,27.007c-14.388,0-25.907-11.368-26.683-25.605l-61.11-47.477
				c-5.285-4.142-6.536-11.432-2.696-16.307c3.818-4.94,11.238-5.544,16.523-1.402L337,307.589c4.832-4.53,11.217-7.42,18.314-7.42
				c4.702,0,8.887,1.51,12.727,3.624l54.509-54.574c5.091-5.069,12.791-5.565,17.106-1.186
				C443.991,252.389,443.495,260.025,438.491,265.116z M477.361,340.851c-7.593,0-13.741-6.169-13.741-13.784
				s6.148-13.719,13.741-13.719c7.615,0,13.784,6.105,13.784,13.719S484.997,340.851,477.361,340.851z"/>
		</g>
	</g>
	<g>
	</g>
	<g>
	</g>
	<g>
	</g>
	<g>
	</g>
	<g>
	</g>
	<g>
	</g>
	<g>
	</g>
	<g>
	</g>
	<g>
	</g>
	<g>
	</g>
	<g>
	</g>
	<g>
	</g>
	<g>
	</g>
	<g>
	</g>
	<g>
	</g>
</g>
<g>
</g>
<g>
</g>
<g>
</g>
<g>
</g>
<g>
</g>
<g>
</g>
<g>
</g>
<g>
</g>
<g>
</g>
<g>
</g>
<g>
</g>
<g>
</g>
<g>
</g>
<g>
</g>
<g>
</g>
</svg>
