<svg width="138" height="138" viewBox="0 0 138 138" fill="none" xmlns="http://www.w3.org/2000/svg">
<path fill-rule="evenodd" clip-rule="evenodd" d="M121.404 137.999C128.699 137.999 134.895 133.293 137.12 126.751C136.706 125.264 136.115 123.373 135.293 121.192C133.199 115.642 129.615 108.239 123.659 100.839C114.046 88.8926 98.146 76.8176 72 72.6806V119.078H68V72.1206C63.025 71.5116 57.699 71.1826 52 71.1826H50V69.1826V68.1376V66.1376H52C57.705 66.1376 63.03 65.8086 68 65.1986V20.0779H72V64.6366C98.061 60.4956 113.752 48.4286 123.165 36.4981C129 29.1027 132.464 21.7036 134.469 16.1566C135.446 13.4526 136.073 11.195 136.459 9.6017C133.82 3.9309 128.071 0 121.404 0H16.596C7.43 0 0 7.43 0 16.596V121.403C0 130.569 7.43 137.999 16.596 137.999H121.404Z" fill="#FDA403"/>
<path d="M138 18.2227V116.536C138 116.536 123.616 78.6747 72.1748 68.6447C72.1748 68.6447 116.528 63.7647 138 18.2227Z" fill="#999999"/>
</svg>
